<svg xmlns="http://www.w3.org/2000/svg" width="1200" height="630" viewBox="0 0 1200 630" font-family="'Hiragino Sans','Hiragino Kaku Gothic ProN','Noto Sans JP','Yu Gothic',Meiryo,sans-serif"><rect width="1200" height="630" fill="#FFFFFF"/><rect width="1200" height="56" fill="#16324F"/><rect x="24" y="10" width="36" height="36" rx="8.64" fill="#33456E"/><path d="M31.02,24.52L30.59,24.55M30.59,24.55L30.18,24.61M30.18,24.61L29.77,24.73M29.77,24.73L29.37,24.89M29.37,24.89L28.99,25.10M28.99,25.10L28.63,25.35M28.63,25.35L28.28,25.64M28.28,25.64L27.97,25.96M27.97,25.96L27.68,26.33M27.68,26.33L27.42,26.72M27.42,26.72L27.20,27.15M27.20,27.15L27.01,27.61M27.01,27.61L26.85,28.08M26.85,28.08L26.74,28.58M26.74,28.58L26.66,29.10M26.66,29.10L26.63,29.62M26.63,29.62L26.64,30.16M26.64,30.16L26.69,30.70M26.69,30.70L26.78,31.24M26.78,31.24L26.92,31.78M26.92,31.78L27.09,32.31M27.09,32.31L27.31,32.83M27.31,32.83L27.57,33.33M27.57,33.33L27.87,33.81M27.87,33.81L28.20,34.27M28.20,34.27L28.57,34.71M28.57,34.71L28.98,35.12M28.98,35.12L29.41,35.49M29.41,35.49L29.88,35.83M29.88,35.83L30.36,36.13M30.36,36.13L30.88,36.39M30.88,36.39L31.41,36.61M31.41,36.61L31.96,36.78M31.96,36.78L32.52,36.91M32.52,36.91L33.09,36.99M33.09,36.99L33.67,37.03M33.67,37.03L34.25,37.02M36.90,22.88L36.48,22.89M36.48,22.89L36.06,22.94M36.06,22.94L35.64,23.05M35.64,23.05L35.24,23.20M35.24,23.20L34.86,23.39M34.86,23.39L34.49,23.63M34.49,23.63L34.14,23.90M34.14,23.90L33.82,24.22M33.82,24.22L33.52,24.57M33.52,24.57L33.25,24.96M33.25,24.96L33.02,25.38M33.02,25.38L32.82,25.83M32.82,25.83L32.65,26.30M32.65,26.30L32.53,26.79M32.53,26.79L32.44,27.30M32.44,27.30L32.40,27.83M32.40,27.83L32.39,28.36M32.39,28.36L32.43,28.90M32.43,28.90L32.51,29.44M32.51,29.44L32.63,29.98M32.63,29.98L32.80,30.51M32.80,30.51L33.01,31.03M33.01,31.03L33.25,31.54M33.25,31.54L33.54,32.03M33.54,32.03L33.86,32.50M33.86,32.50L34.22,32.94M34.22,32.94L34.62,33.36M34.62,33.36L35.04,33.74M35.04,33.74L35.50,34.09M35.50,34.09L35.98,34.40M35.98,34.40L36.49,34.67M36.49,34.67L37.01,34.90M37.01,34.90L37.56,35.09M37.56,35.09L38.12,35.23M38.12,35.23L38.68,35.33M38.68,35.33L39.26,35.38M39.26,35.38L39.84,35.38M39.84,35.38L40.42,35.33M42.36,21.24L41.93,21.28M41.93,21.28L41.52,21.37M41.52,21.37L41.12,21.50M41.12,21.50L40.72,21.68M40.72,21.68L40.35,21.91M40.35,21.91L40.00,22.17M40.00,22.17L39.67,22.48M39.67,22.48L39.36,22.82M39.36,22.82L39.09,23.20M39.09,23.20L38.84,23.61M38.84,23.61L38.63,24.05M38.63,24.05L38.46,24.52M38.46,24.52L38.32,25.00M38.32,25.00L38.22,25.51M38.22,25.51L38.17,26.03M38.17,26.03L38.15,26.56M38.15,26.56L38.18,27.10M38.18,27.10L38.24,27.64M38.24,27.64L38.35,28.18M38.35,28.18L38.51,28.71M38.51,28.71L38.70,29.24M38.70,29.24L38.94,29.75M38.94,29.75L39.21,30.25M39.21,30.25L39.53,30.72M39.53,30.72L39.88,31.17M39.88,31.17L40.26,31.60M40.26,31.60L40.68,31.99M40.68,31.99L41.13,32.35M41.13,32.35L41.60,32.67M41.60,32.67L42.10,32.95M42.10,32.95L42.62,33.20M42.62,33.20L43.16,33.40M43.16,33.40L43.72,33.55M43.72,33.55L44.28,33.66M44.28,33.66L44.86,33.72M44.86,33.72L45.43,33.74M45.43,33.74L46.01,33.71M48.24,19.59L47.81,19.62M47.81,19.62L47.40,19.69M47.40,19.69L46.99,19.81M46.99,19.81L46.59,19.98M46.59,19.98L46.22,20.19M46.22,20.19L45.86,20.45M45.86,20.45L45.52,20.74M45.52,20.74L45.21,21.08M45.21,21.08L44.92,21.45M44.92,21.45L44.67,21.85M44.67,21.85L44.45,22.28M44.45,22.28L44.26,22.74M44.26,22.74L44.12,23.22M44.12,23.22L44.01,23.72M44.01,23.72L43.94,24.23M43.94,24.23L43.91,24.76M43.91,24.76L43.92,25.30M43.92,25.30L43.98,25.84" stroke="#8FD3BE" stroke-width="3.48" stroke-linecap="round" fill="none"/><path d="M35.70,31.60L35.76,31.02M35.76,31.02L35.77,30.43M35.77,30.43L35.74,29.86M35.74,29.86L35.67,29.30M35.67,29.30L35.56,28.76M35.56,28.76L35.42,28.23M35.42,28.23L35.23,27.73M35.23,27.73L35.01,27.25M35.01,27.25L34.76,26.81M34.76,26.81L34.47,26.39M34.47,26.39L34.16,26.02M34.16,26.02L33.82,25.68M33.82,25.68L33.46,25.38M33.46,25.38L33.09,25.12M33.09,25.12L32.69,24.91M32.69,24.91L32.28,24.74M32.28,24.74L31.87,24.62M31.87,24.62L31.44,24.55M31.44,24.55L31.02,24.52M34.25,37.02L34.82,36.96M34.82,36.96L35.40,36.85M35.40,36.85L35.96,36.70M35.96,36.70L36.52,36.50M36.52,36.50L37.06,36.25M37.06,36.25L37.58,35.97M37.58,35.97L38.08,35.64M38.08,35.64L38.55,35.27M38.55,35.27L39.00,34.87M39.00,34.87L39.42,34.43M39.42,34.43L39.80,33.96M39.80,33.96L40.15,33.47M40.15,33.47L40.47,32.95M40.47,32.95L40.74,32.41M40.74,32.41L40.98,31.85M40.98,31.85L41.17,31.28M41.17,31.28L41.33,30.71M41.33,30.71L41.44,30.12M41.44,30.12L41.50,29.54M41.50,29.54L41.53,28.95M41.53,28.95L41.51,28.38M41.51,28.38L41.46,27.81M41.46,27.81L41.36,27.26M41.36,27.26L41.22,26.73M41.22,26.73L41.05,26.22M41.05,26.22L40.84,25.74M40.84,25.74L40.59,25.28M40.59,25.28L40.32,24.86M40.32,24.86L40.01,24.47M40.01,24.47L39.68,24.12M39.68,24.12L39.33,23.81M39.33,23.81L38.96,23.54M38.96,23.54L38.56,23.32M38.56,23.32L38.16,23.14M38.16,23.14L37.75,23.01M37.75,23.01L37.32,22.92M37.32,22.92L36.90,22.88M40.42,35.33L41.00,35.24M41.00,35.24L41.56,35.10M41.56,35.10L42.12,34.91M42.12,34.91L42.67,34.68M42.67,34.68L43.19,34.41M43.19,34.41L43.70,34.09M43.70,34.09L44.18,33.74M44.18,33.74L44.64,33.34M44.64,33.34L45.06,32.91M45.06,32.91L45.46,32.46M45.46,32.46L45.82,31.97M45.82,31.97L46.14,31.46M46.14,31.46L46.43,30.92M46.43,30.92L46.67,30.37M46.67,30.37L46.88,29.80M46.88,29.80L47.05,29.23M47.05,29.23L47.17,28.64M47.17,28.64L47.25,28.06M47.25,28.06L47.29,27.47M47.29,27.47L47.28,26.90M47.28,26.90L47.24,26.33M47.24,26.33L47.15,25.77M47.15,25.77L47.03,25.24M47.03,25.24L46.86,24.72M46.86,24.72L46.66,24.23M46.66,24.23L46.43,23.77M46.43,23.77L46.16,23.33M46.16,23.33L45.86,22.94M45.86,22.94L45.54,22.57M45.54,22.57L45.19,22.25M45.19,22.25L44.82,21.97M44.82,21.97L44.44,21.73M44.44,21.73L44.04,21.54M44.04,21.54L43.62,21.39M43.62,21.39L43.20,21.29M43.20,21.29L42.78,21.24M42.78,21.24L42.36,21.24M46.01,33.71L46.59,33.63M46.59,33.63L47.16,33.50M47.16,33.50L47.72,33.33M47.72,33.33L48.27,33.11M48.27,33.11L48.80,32.84M48.80,32.84L49.32,32.54M49.32,32.54L49.80,32.20M49.80,32.20L50.27,31.81M50.27,31.81L50.70,31.39M50.70,31.39L51.11,30.94M51.11,30.94L51.48,30.46M51.48,30.46L51.81,29.96M51.81,29.96L52.11,29.43M52.11,29.43L52.37,28.88M52.37,28.88L52.59,28.32M52.59,28.32L52.76,27.75M52.76,27.75L52.90,27.16M52.90,27.16L52.99,26.58M52.99,26.58L53.04,25.99M53.04,25.99L53.05,25.41M53.05,25.41L53.02,24.84M53.02,24.84L52.94,24.28M52.94,24.28L52.83,23.74M52.83,23.74L52.67,23.22M52.67,23.22L52.48,22.72M52.48,22.72L52.26,22.25M52.26,22.25L52.00,21.81M52.00,21.81L51.71,21.40M51.71,21.40L51.40,21.03M51.40,21.03L51.05,20.69M51.05,20.69L50.69,20.40M50.69,20.40L50.31,20.15M50.31,20.15L49.91,19.95M49.91,19.95L49.50,19.79M49.50,19.79L49.09,19.67M49.09,19.67L48.66,19.61M48.66,19.61L48.24,19.59" stroke="#FFFFFF" stroke-width="3.78" stroke-linecap="round" fill="none"/><circle cx="52.98" cy="17.38" r="3.31" fill="#35C99A" stroke="#33456E" stroke-width="0.72"/><text x="72" y="36" font-size="21" font-weight="700" fill="#FFFFFF">構造生物学デイリー</text><text x="271" y="36" font-size="12" letter-spacing="2" fill="#AFC0DD">STRUCTURAL BIOLOGY DAILY · β</text><text x="1176" y="36" font-size="17" fill="#D5DDEB" text-anchor="end">2026-10-09</text><rect x="24" y="76" width="600" height="530" rx="18" fill="#EDF5F1"/><g fill="none" stroke-linecap="round" stroke-linejoin="round"><polyline points="320.3,423.5 328.9,416.8 340.5,410.2 340.3,395.3 350.0,392.7 339.1,393.9 336.2,380.1" stroke="#f2d6a6" stroke-width="3.49"/><polyline points="336.7,450.6 325.4,459.5 333.7,464.1 345.1,467.4 335.8,474.7 329.6,482.3 342.4,485.7" stroke="#f1d5a4" stroke-width="3.53"/><polyline points="313.0,392.0 315.6,378.9 302.4,372.8" stroke="#f1d4a2" stroke-width="3.56"/><polyline points="244.2,173.5 234.7,162.5 233.2,149.8 235.7,135.2 249.6,132.3 256.5,119.3 261.1,116.3" stroke="#e9b5b4" stroke-width="3.63"/><polyline points="298.2,413.3 289.9,409.2 301.6,411.3 310.7,402.8 300.9,391.7 298.2,391.7 313.0,392.0" stroke="#f0d29e" stroke-width="3.63"/><polyline points="342.4,485.7 346.8,494.6 336.5,505.0 331.6,501.8 342.9,501.0 343.7,491.5 343.8,503.0" stroke="#f0d19c" stroke-width="3.68"/><polyline points="297.8,351.6 309.3,350.7 322.2,343.5 335.9,348.4 348.5,340.3 341.9,328.8 337.5,338.0" stroke="#f0d19b" stroke-width="3.69"/><polyline points="338.0,415.2 333.6,418.0 334.8,432.1 326.0,432.6 323.7,443.2 338.3,445.9 336.7,450.6" stroke="#f0d19b" stroke-width="3.69"/><polyline points="358.8,405.5 355.8,418.1 353.3,416.8 350.1,426.9 340.1,421.4 332.2,427.3 320.3,423.5" stroke="#f0d19a" stroke-width="3.70"/><polyline points="261.1,116.3 275.1,120.1 274.8,131.2 276.5,145.9 267.1,157.2 266.5,171.8 254.2,179.3" stroke="#e8b1b0" stroke-width="3.71"/><polyline points="219.1,158.2 232.3,151.1 229.4,136.7 240.0,126.3 239.9,112.0" stroke="#e8b0af" stroke-width="3.73"/><polyline points="213.5,241.1 214.7,228.7 223.8,217.0 223.6,207.6 232.2,195.4 236.2,185.9 244.2,173.5" stroke="#e8b0af" stroke-width="3.74"/><polyline points="388.7,378.9 382.1,391.0 393.0,400.2 387.2,402.0 375.3,408.7 382.9,419.2 383.0,433.8" stroke="#9eb7db" stroke-width="3.74"/><polyline points="336.2,380.1 350.8,377.3 353.6,387.3 343.0,381.2 349.4,367.9 363.0,373.3 358.5,380.3" stroke="#f0d098" stroke-width="3.74"/><polyline points="254.2,179.3 253.6,193.9 244.3,203.0 242.7,216.4 237.9,227.8 231.5,240.0 223.8,250.0" stroke="#e8b0af" stroke-width="3.75"/><polyline points="363.6,467.1 375.2,461.1 376.6,470.8 361.9,472.4 359.2,457.8 370.5,454.6 365.5,464.9" stroke="#efcf97" stroke-width="3.76"/><polyline points="274.3,237.2 277.5,244.4 267.3,236.1 258.6,233.3 259.9,218.4 261.2,207.3 267.7,194.5" stroke="#e7afae" stroke-width="3.77"/><polyline points="362.2,495.1 374.0,501.9 379.1,494.4 379.0,493.3 365.4,493.3 368.3,481.3 363.6,467.1" stroke="#efcf96" stroke-width="3.77"/><polyline points="316.0,420.5 318.5,435.2 316.3,444.5 328.2,453.2 320.4,462.9 311.5,466.4 321.7,475.0" stroke="#efce95" stroke-width="3.79"/><polyline points="301.1,420.5 293.0,432.7 281.0,434.8 284.6,436.8 299.1,435.9 302.6,425.7 298.2,413.3" stroke="#efce94" stroke-width="3.82"/><polyline points="267.7,194.5 266.7,181.2 276.3,171.2 273.4,156.9 283.6,146.1 281.2,131.5 266.3,132.3" stroke="#e7acab" stroke-width="3.83"/><polyline points="321.7,475.0 314.4,487.4 300.7,481.5 291.1,483.2 280.4,474.3 267.3,477.1 259.4,474.4" stroke="#efcd91" stroke-width="3.86"/><polyline points="337.5,338.0 323.0,339.2 318.7,353.1 305.7,356.6 302.3,371.2 291.5,375.0 285.1,388.0" stroke="#efcd91" stroke-width="3.86"/><polyline points="212.3,220.7 213.4,207.2 216.2,203.0 207.5,195.0 215.8,182.6 221.7,172.9 219.1,158.2" stroke="#e6aaa9" stroke-width="3.87"/><polyline points="399.4,355.5 408.9,364.7 402.5,361.4 388.9,364.0 392.8,377.1 400.1,380.9 388.7,378.9" stroke="#96b2d8" stroke-width="3.88"/><polyline points="242.3,384.1 252.1,382.4 266.1,377.5 271.3,375.1 281.3,364.2 290.1,364.2 297.8,351.6" stroke="#eecc90" stroke-width="3.88"/><polyline points="278.0,161.8 284.3,175.2 276.6,188.0 281.9,200.5 276.3,213.6 278.8,223.7 274.3,237.2" stroke="#e6a9a8" stroke-width="3.90"/><polyline points="266.3,132.3 259.5,121.7 245.8,115.8 241.7,124.0 243.7,137.0 231.6,136.1 223.7,147.8" stroke="#e6a9a8" stroke-width="3.91"/><polyline points="223.8,250.0 231.6,252.3 245.3,255.8 251.3,242.2 264.6,246.4 258.8,249.2 251.3,236.4" stroke="#e5a7a6" stroke-width="3.95"/><polyline points="223.7,147.8 218.4,161.3 228.6,171.8 224.4,185.4 232.8,197.7 230.3,205.9 234.9,219.5" stroke="#e5a7a6" stroke-width="3.96"/><polyline points="358.5,380.3 350.5,368.4 362.3,359.6 370.4,368.6 359.8,368.6 358.2,353.8 372.9,351.3" stroke="#eeca8b" stroke-width="3.98"/><polyline points="343.8,503.0 328.8,502.6 328.7,489.7 341.8,491.7 344.9,506.0 357.7,501.7 362.2,495.1" stroke="#eeca8b" stroke-width="3.98"/><polyline points="326.7,350.4 315.6,358.9 316.1,373.6 306.7,383.4 303.9,393.6 301.1,406.7 301.1,420.5" stroke="#eeca8b" stroke-width="3.98"/><polyline points="375.3,318.0 382.1,329.8 384.9,325.3 374.4,315.1 363.6,316.5 354.8,307.3 364.0,295.6" stroke="#90aed6" stroke-width="3.99"/><polyline points="428.6,330.4 417.2,327.1 407.5,333.2 415.6,345.7 416.6,346.1 401.8,344.5 399.4,355.5" stroke="#90aed6" stroke-width="3.99"/><polyline points="259.4,474.4 267.8,482.8 274.3,492.8 283.4,496.2 291.3,483.7 301.5,480.3 300.5,467.0" stroke="#edc98a" stroke-width="4.00"/><polyline points="180.6,192.7 181.6,183.7 169.1,184.3 166.7,173.1 174.8,174.9 182.1,186.7 194.5,190.6" stroke="#e4a5a4" stroke-width="4.00"/><polyline points="365.5,464.9 351.8,459.0 357.3,445.3 365.6,449.9 354.0,457.0 345.8,444.6 356.4,435.6" stroke="#edc989" stroke-width="4.01"/><polyline points="319.2,366.7 332.0,366.0 331.5,380.4 322.6,392.4 321.9,398.2 319.6,412.7 316.0,420.5" stroke="#edc988" stroke-width="4.02"/><polyline points="324.8,304.8 319.2,309.1 314.0,322.0 326.4,325.5 334.5,326.9 323.9,335.8 326.7,350.4" stroke="#edc888" stroke-width="4.03"/><polyline points="212.7,310.3 210.3,324.9 218.2,337.4 210.8,348.7 214.6,361.9 209.3,375.6 218.5,381.3" stroke="#90c7be" stroke-width="4.04"/><polyline points="285.1,388.0 276.8,393.5 273.1,406.6 258.7,402.7 257.7,401.0 251.9,413.9 251.1,408.9" stroke="#edc887" stroke-width="4.05"/><polyline points="224.3,261.1 232.7,260.1 239.0,273.6 236.1,287.3 230.9,296.2 227.5,310.6 212.7,310.3" stroke="#8fc7be" stroke-width="4.05"/><polyline points="300.5,467.0 315.1,464.9 313.5,468.9 302.1,459.3 310.2,448.4 321.5,451.2 312.0,451.1" stroke="#edc887" stroke-width="4.05"/><polyline points="228.7,165.3 216.2,157.4 215.2,143.0 202.5,138.8 191.3,136.4 200.2,140.1 204.3,151.6" stroke="#e4a2a1" stroke-width="4.06"/><polyline points="251.3,236.4 256.3,223.7 251.8,212.6 247.5,198.8 244.7,186.5 233.8,177.9 228.7,165.3" stroke="#e3a2a1" stroke-width="4.07"/><polyline points="364.0,295.6 365.1,296.6 351.5,290.9 354.4,279.5 368.5,276.4 365.6,278.6 352.0,272.7" stroke="#8caad4" stroke-width="4.08"/><polyline points="179.4,324.9 177.7,336.9 190.2,344.2 182.6,356.9 183.8,367.3 171.2,364.5 173.6,375.7" stroke="#8dc6bd" stroke-width="4.10"/><polyline points="429.0,294.0 431.2,305.9 440.5,313.2 433.0,310.4 418.6,311.7 420.8,324.3 428.6,330.4" stroke="#8aa9d3" stroke-width="4.11"/><polyline points="266.1,308.5 260.5,322.2 259.5,330.1 265.3,342.3 275.6,341.0 271.4,353.6 261.2,348.9" stroke="#8cc5bc" stroke-width="4.11"/><polyline points="270.6,150.6 263.6,142.1 269.6,150.4 282.7,155.1 293.5,153.6 285.0,148.9 278.0,161.8" stroke="#e3a09f" stroke-width="4.12"/><polyline points="250.5,364.5 237.3,370.1 231.0,356.7 225.6,347.2 228.1,333.3 219.1,322.6 225.0,308.9" stroke="#8bc5bc" stroke-width="4.12"/><polyline points="262.3,195.8 271.4,206.6 272.2,219.8 272.4,233.5 285.6,235.3 287.9,220.5 294.3,222.6" stroke="#e3a09e" stroke-width="4.12"/><polyline points="225.0,308.9 216.6,296.5 223.9,286.9 214.8,275.1 213.9,271.7 211.6,258.9 224.3,261.1" stroke="#8bc5bc" stroke-width="4.13"/><polyline points="408.7,304.8 401.4,296.8 388.2,300.6 391.8,315.0 396.1,314.5 383.2,307.9 375.3,318.0" stroke="#89a8d3" stroke-width="4.14"/><polyline points="129.1,204.4 130.2,195.9 144.1,201.1 149.1,196.1 148.9,181.6 162.6,175.9 174.0,170.3" stroke="#e39f9e" stroke-width="4.14"/><polyline points="296.0,279.5 297.0,291.4 311.8,290.1 313.2,288.8 304.3,300.7 312.1,308.6 324.8,304.8" stroke="#ecc582" stroke-width="4.15"/><polyline points="337.8,394.1 344.3,382.3 337.8,383.3 345.1,390.9 338.4,401.1 340.2,401.0 338.0,415.2" stroke="#ecc581" stroke-width="4.15"/><polyline points="204.3,151.6 214.6,161.4 228.4,162.3 239.2,172.5 250.8,170.2 260.2,181.6 262.3,195.8" stroke="#e29e9d" stroke-width="4.17"/><polyline points="457.4,276.1 456.4,276.3 441.6,274.9 440.8,285.7 449.3,295.2 442.6,292.3 429.0,294.0" stroke="#86a6d2" stroke-width="4.19"/><polyline points="368.6,414.3 374.5,402.1 363.8,391.9 358.0,395.6 362.5,401.2 356.0,409.4 358.8,405.5" stroke="#ecc47e" stroke-width="4.21"/><polyline points="372.9,351.3 373.9,360.6 362.4,353.7 368.8,340.4 381.7,345.3 374.5,350.2 367.4,337.1" stroke="#ecc47e" stroke-width="4.22"/><polyline points="163.0,159.4 150.2,167.0 139.7,160.4 126.1,166.0" stroke="#e29c9a" stroke-width="4.22"/><polyline points="203.9,383.1 195.6,373.8 186.2,362.4 186.8,353.1 178.7,342.3 189.0,332.2 179.4,324.9" stroke="#86c2b9" stroke-width="4.22"/><polyline points="224.7,312.5 227.0,326.6 238.9,335.1 241.3,349.1 251.3,360.0 257.7,370.0 250.5,364.5" stroke="#86c2b9" stroke-width="4.22"/><polyline points="194.5,190.6 195.4,192.6 191.5,206.1 196.4,212.3 185.4,215.1 191.7,216.9 206.0,220.0" stroke="#e29b9a" stroke-width="4.22"/><polyline points="294.3,222.6 288.8,210.3 283.8,197.7 276.5,186.8 272.3,173.3 263.5,162.6 270.6,150.6" stroke="#e29b9a" stroke-width="4.22"/><polyline points="312.0,451.1 306.8,437.8 320.7,432.6 324.2,437.4 312.0,430.8 314.8,417.8 329.8,416.9" stroke="#ecc37d" stroke-width="4.23"/><polyline points="218.5,381.3 227.1,392.8 237.1,390.9 245.1,380.2 237.5,369.8 240.4,369.0 230.5,359.7" stroke="#85c2b8" stroke-width="4.24"/><polyline points="409.4,372.7 416.6,378.6 412.7,370.0 411.5,358.0 425.9,358.6 430.1,360.3 421.8,348.9" stroke="#82a3d1" stroke-width="4.26"/><polyline points="225.2,253.8 226.7,247.2 218.4,235.6 227.4,224.6 222.1,214.6 212.3,224.7 212.3,220.7" stroke="#e19a98" stroke-width="4.27"/><polyline points="279.0,261.2 293.0,257.5 289.6,258.6 283.7,272.0 296.4,275.8 304.4,271.3 296.0,279.5" stroke="#ebc27b" stroke-width="4.27"/><polyline points="352.0,272.7 344.6,266.7 352.0,253.9 364.2,260.8 367.2,268.4 365.8,256.1 374.2,248.2" stroke="#82a3d0" stroke-width="4.27"/><polyline points="356.4,435.6 359.6,444.8 345.9,442.3 350.3,428.4 352.5,428.9 356.5,414.5 368.6,414.3" stroke="#ebc27a" stroke-width="4.28"/><polyline points="287.7,390.3 293.3,380.4 288.5,369.6 299.9,373.5 310.7,372.3 320.2,362.9 319.2,366.7" stroke="#ebc27a" stroke-width="4.29"/><polyline points="191.2,235.3 187.4,246.0 176.0,242.8 170.7,232.6 156.7,234.7 154.8,237.4 147.3,224.6" stroke="#e19997" stroke-width="4.29"/><polyline points="473.3,240.7 460.9,242.6 465.2,255.8 469.6,260.4 456.4,256.7 449.1,263.7 457.4,276.1" stroke="#81a2d0" stroke-width="4.29"/><polyline points="234.9,219.5 237.1,224.5 242.8,237.6 248.1,238.2 247.5,250.7 239.7,255.6 225.2,253.8" stroke="#e19897" stroke-width="4.31"/><polyline points="271.3,268.0 268.6,276.3 255.0,272.4 255.5,281.7 264.6,291.5 257.6,300.2 266.1,308.5" stroke="#82c0b6" stroke-width="4.31"/><polyline points="290.7,327.6 278.6,325.4 273.3,314.5 261.1,312.9 262.9,301.0 252.5,293.3 259.2,286.8" stroke="#81c0b6" stroke-width="4.31"/><polyline points="420.0,271.8 409.3,280.5 417.1,292.8 417.8,287.5 403.1,284.9 400.4,298.6 408.7,304.8" stroke="#7fa1cf" stroke-width="4.32"/><polyline points="189.7,469.2 175.5,472.1 171.3,457.9 183.0,452.6 180.1,461.7 165.6,457.8 169.3,443.3" stroke="#be97cf" stroke-width="4.32"/><polyline points="218.6,374.2 227.5,381.8 236.3,393.7 226.4,401.5 219.8,405.8 208.2,396.6 203.9,383.1" stroke="#81c0b6" stroke-width="4.32"/><polyline points="251.1,408.9 260.7,412.3 274.5,408.3 278.4,406.3 268.6,395.1 273.6,386.2 287.7,390.3" stroke="#ebc177" stroke-width="4.33"/><polyline points="186.9,312.3 180.2,322.8 182.7,335.9 195.8,342.2 199.0,355.5 211.4,362.0 218.6,374.2" stroke="#80bfb6" stroke-width="4.34"/><polyline points="231.2,167.8 217.1,169.0 205.4,160.9 197.3,150.0 186.4,159.4 171.9,159.9 163.0,159.4" stroke="#e09695" stroke-width="4.34"/><polyline points="367.4,337.1 380.0,329.2 388.0,337.9 398.1,341.9 393.4,356.1" stroke="#ebc076" stroke-width="4.35"/><polyline points="421.8,348.9 426.5,339.8 440.6,343.4 437.9,340.8 432.0,327.4 443.4,323.3 453.5,328.4" stroke="#7da0cf" stroke-width="4.36"/><polyline points="130.9,156.4 125.1,169.8 114.1,177.4 115.6,192.0 112.0,201.3 116.5,192.2 129.3,195.2" stroke="#e09694" stroke-width="4.36"/><polyline points="173.6,375.7 183.8,386.5 187.1,393.0 192.5,406.9 195.6,417.2 210.0,415.0 219.1,426.2" stroke="#7fbeb4" stroke-width="4.37"/><polyline points="174.0,170.3 178.5,178.1 193.1,176.6 200.1,180.6 214.9,182.8 225.2,188.3 236.4,197.9" stroke="#e09594" stroke-width="4.37"/><polyline points="488.0,221.5 495.5,228.6 490.3,224.1 475.7,223.9 474.3,235.6 482.3,244.2 473.3,240.7" stroke="#7c9fce" stroke-width="4.38"/><polyline points="329.8,416.9 330.7,417.1 317.8,410.0 318.5,401.1 315.8,389.2 324.9,392.3 337.8,394.1" stroke="#eac075" stroke-width="4.38"/><polyline points="374.2,248.2 385.0,258.5 384.7,260.2 386.0,245.6 395.9,243.8 405.5,253.7 404.5,247.1" stroke="#7b9ece" stroke-width="4.39"/><polyline points="245.1,300.5 248.0,308.0 259.9,317.0 263.4,327.0 276.8,332.2 283.1,339.0 290.7,327.6" stroke="#7dbeb4" stroke-width="4.39"/><polyline points="261.2,348.9 258.0,355.8 246.0,347.9 240.3,334.2 228.1,327.5 222.6,314.0 208.1,311.6" stroke="#7dbeb4" stroke-width="4.40"/><polyline points="273.0,226.5 267.8,229.4 264.0,243.0 277.9,245.1 283.0,240.7 273.9,250.6 279.0,261.2" stroke="#eabf74" stroke-width="4.40"/><polyline points="208.1,311.6 200.2,307.6 195.8,295.4 210.0,292.7 207.1,290.9 213.1,303.7 224.7,312.5" stroke="#7cbdb3" stroke-width="4.41"/><polyline points="170.3,196.9 155.8,200.5 147.4,204.9 135.6,212.7 127.5,211.6 129.7,201.6 129.1,204.4" stroke="#df9392" stroke-width="4.41"/><polyline points="188.0,154.7 181.0,141.9 168.2,146.1 167.9,145.2 153.5,146.2 143.7,155.9 130.9,156.4" stroke="#df9392" stroke-width="4.42"/><polyline points="230.5,359.7 220.4,350.3 211.2,342.1 200.9,332.0 186.9,331.9 181.9,319.9 186.9,312.3" stroke="#7cbdb3" stroke-width="4.42"/><polyline points="296.5,297.5 296.5,297.3 293.3,311.3 304.8,317.9 301.0,332.2 293.6,341.5 280.3,336.6" stroke="#7bbdb3" stroke-width="4.43"/><polyline points="502.4,277.6 497.1,263.7 499.7,262.0 512.9,269.0 517.9,261.1 520.2,247.4 526.1,244.4" stroke="#799dcd" stroke-width="4.44"/><polyline points="220.4,211.5 224.7,208.1 213.2,200.0 207.6,202.6 194.8,197.8 192.6,195.3 180.6,192.7" stroke="#df9291" stroke-width="4.44"/><polyline points="465.5,291.3 476.3,295.6 487.1,295.6 483.8,282.2 482.0,276.1 494.8,282.0 502.4,277.6" stroke="#789ccd" stroke-width="4.46"/><polyline points="236.4,197.9 244.0,196.9 255.3,188.0 258.6,187.7 255.4,173.5 241.5,178.6 231.2,167.8" stroke="#df9190" stroke-width="4.46"/><polyline points="453.5,328.4 447.2,321.4 447.1,308.8 461.2,309.8 467.5,314.5 461.6,302.8 465.5,291.3" stroke="#789ccd" stroke-width="4.46"/><polyline points="404.5,247.1 406.3,233.2 417.9,237.4 423.9,244.0 424.8,230.8 426.1,221.2 438.3,227.8" stroke="#779bcd" stroke-width="4.47"/><polyline points="206.0,220.0 211.8,218.8 199.1,212.5 191.7,225.4 194.1,234.9 184.7,234.7 191.2,235.3" stroke="#de908f" stroke-width="4.48"/><polyline points="219.1,426.2 231.3,417.5 235.6,403.9 228.2,393.0 238.2,383.6 230.3,373.1 216.6,368.4" stroke="#79bbb1" stroke-width="4.49"/><polyline points="335.1,305.4 336.2,316.1 351.0,314.2 350.2,299.4 351.5,301.5 358.8,292.2 371.1,300.6" stroke="#769acc" stroke-width="4.49"/><polyline points="371.1,300.6 371.1,303.4 371.6,288.7 385.3,288.8 389.6,299.0 382.8,290.7 391.0,278.9" stroke="#769acc" stroke-width="4.50"/><polyline points="427.6,261.5 437.6,269.1 434.3,261.4 419.7,264.2 423.0,278.6 430.6,279.0 420.0,271.8" stroke="#759acc" stroke-width="4.51"/><polyline points="180.1,490.6 182.7,497.6 169.4,493.8 172.0,479.3 185.3,480.2 179.1,486.8 168.8,476.0" stroke="#76bab0" stroke-width="4.53"/><polyline points="280.3,336.6 269.5,346.9 257.3,339.3 251.6,326.8 238.4,321.6 234.5,309.7 224.3,300.4" stroke="#75baaf" stroke-width="4.55"/><polyline points="155.5,366.4 151.7,380.8 164.4,385.7 167.2,398.5 177.2,402.0 169.8,400.1 180.1,406.1" stroke="#75baaf" stroke-width="4.55"/><polyline points="169.3,443.3 178.9,445.7 168.8,453.0 158.4,442.7 167.7,432.0 171.3,439.8 156.8,441.7" stroke="#b88dca" stroke-width="4.56"/><polyline points="259.8,148.4 251.2,156.5 238.3,162.4 226.7,154.1 213.9,161.3 202.1,152.2 188.0,154.7" stroke="#dd8d8c" stroke-width="4.56"/><polyline points="129.3,195.2 140.3,185.1 153.6,184.5 166.0,177.5 175.6,172.7 190.4,171.4 200.6,166.0" stroke="#dd8d8c" stroke-width="4.56"/><polyline points="438.3,227.8 444.9,227.6 439.5,214.3 451.4,206.0 460.4,214.8 454.7,208.8 466.9,200.7" stroke="#7298cb" stroke-width="4.57"/><polyline points="279.2,213.8 271.2,219.6 259.4,213.8 259.9,210.2 252.9,222.9 260.5,231.6 273.0,226.5" stroke="#e9ba6a" stroke-width="4.58"/><polyline points="212.8,400.2 199.4,399.6 188.7,389.8 180.4,386.3 167.9,378.4 169.8,368.0 155.5,366.4" stroke="#73b8ae" stroke-width="4.60"/><polyline points="413.1,330.7 414.9,330.2 403.8,321.6 393.9,324.2 396.6,336.9 399.1,344.9 386.6,339.2" stroke="#7096ca" stroke-width="4.60"/><polyline points="147.3,224.6 160.0,217.1 165.9,218.6 177.9,211.5 181.1,209.6 187.3,200.0 198.9,198.5" stroke="#dd8b8a" stroke-width="4.60"/><polyline points="472.1,241.6 477.3,232.8 491.5,228.5 499.7,236.9 508.9,225.9 499.6,214.3 488.0,221.5" stroke="#6f95ca" stroke-width="4.62"/><polyline points="386.6,339.2 375.2,348.8 365.1,337.9 371.4,333.1 372.7,347.0 358.3,349.6 354.4,336.6" stroke="#6f95c9" stroke-width="4.62"/><polyline points="259.2,286.8 254.5,275.8 258.8,282.5 257.9,269.8 268.7,262.9 274.6,274.7 271.3,268.0" stroke="#71b8ad" stroke-width="4.63"/><polyline points="223.4,391.6 229.2,401.5 241.5,409.8 233.7,421.8 234.7,416.9 220.3,413.0 212.8,400.2" stroke="#71b7ac" stroke-width="4.64"/><polyline points="176.8,343.5 166.7,354.5 175.7,366.1 190.2,368.3 200.3,378.5 211.5,383.4 223.4,391.6" stroke="#70b7ac" stroke-width="4.65"/><polyline points="261.5,316.0 270.5,327.5 275.7,328.7 286.7,338.3 295.4,344.7 306.3,334.7 298.3,324.4" stroke="#70b7ac" stroke-width="4.65"/><polyline points="224.3,300.4 211.5,298.5 216.0,285.0 227.8,291.8 237.3,281.9 239.9,286.8 245.1,300.5" stroke="#70b7ac" stroke-width="4.66"/><polyline points="526.1,244.4 524.0,252.4 536.0,261.2 530.4,274.9 529.9,280.6 518.5,276.6 514.8,291.0" stroke="#6c93c8" stroke-width="4.68"/><polyline points="391.0,278.9 403.5,287.0 400.4,292.0 397.4,278.0 410.9,273.4 417.5,285.2 409.7,283.2" stroke="#6c93c8" stroke-width="4.69"/><polyline points="216.6,368.4 210.2,358.9 197.1,352.3 188.0,350.9 185.5,337.1 171.6,338.0 176.8,343.5" stroke="#6eb6ab" stroke-width="4.69"/><polyline points="440.0,300.8 431.9,296.7 431.0,310.6 431.2,319.8 420.2,312.6 409.1,316.4 413.1,330.7" stroke="#6b93c8" stroke-width="4.70"/><polyline points="454.4,238.4 443.0,233.2 434.0,243.8 444.1,254.5 446.2,250.4 431.6,248.3 427.6,261.5" stroke="#6b92c8" stroke-width="4.70"/><polyline points="479.3,282.3 474.6,294.0 471.3,301.8 461.3,291.4 454.2,294.2 450.2,307.4 440.0,300.8" stroke="#6b92c8" stroke-width="4.71"/><polyline points="250.5,426.1 254.9,419.2 251.0,408.5 243.6,396.2 249.9,383.6 241.5,373.1 228.1,371.2" stroke="#6db5aa" stroke-width="4.72"/><polyline points="198.9,198.5 212.9,193.6 208.6,179.8 194.0,179.5 189.0,187.7 175.6,190.3 170.3,196.9" stroke="#db8684" stroke-width="4.73"/><polyline points="200.6,166.0 215.5,166.9 225.4,158.2 233.6,170.1 227.6,182.7 227.9,193.4 227.1,205.0" stroke="#db8684" stroke-width="4.74"/><polyline points="514.8,291.0 511.3,292.4 503.3,279.8 496.0,284.5 493.2,297.6 488.4,290.9 479.3,282.3" stroke="#6991c7" stroke-width="4.74"/><polyline points="303.3,327.2 304.3,334.3 315.8,340.7 307.3,350.8 294.1,357.7 282.7,349.7 274.5,352.5" stroke="#6bb5a9" stroke-width="4.74"/><polyline points="168.8,476.0 179.5,465.6 187.0,472.2 174.5,473.1 171.6,458.6 185.6,454.7 184.7,462.9" stroke="#6ab4a9" stroke-width="4.77"/><polyline points="274.5,352.5 262.6,343.9 257.1,336.5 244.7,328.6 238.4,321.3 231.4,308.4 216.6,307.4" stroke="#6ab4a9" stroke-width="4.77"/><polyline points="366.4,304.4 363.6,314.8 360.7,304.0 352.3,295.7 344.2,306.5 339.4,314.3 335.1,305.4" stroke="#6790c7" stroke-width="4.78"/><polyline points="298.3,324.4 294.7,315.9 281.5,313.6 281.7,309.6 270.9,303.2 270.4,306.7 262.4,302.5" stroke="#6ab4a8" stroke-width="4.78"/><polyline points="227.1,205.0 240.6,211.1 246.8,219.8 244.3,232.4 229.5,229.9 226.5,225.0 220.4,211.5" stroke="#db8482" stroke-width="4.78"/><polyline points="156.8,441.7 154.4,427.1 165.6,423.7 160.5,433.6 146.9,427.2 151.5,414.2 148.9,409.9" stroke="#b282c5" stroke-width="4.81"/><polyline points="286.6,303.4 288.3,301.0 281.7,287.8 283.1,287.5 291.5,295.5 285.2,294.9 296.5,297.5" stroke="#68b3a7" stroke-width="4.81"/><polyline points="466.9,200.7 476.9,211.7 470.2,222.4 480.5,224.8 485.2,236.3 494.8,243.7 507.0,247.8" stroke="#658ec6" stroke-width="4.82"/><polyline points="180.1,406.1 193.5,412.6 204.2,411.8 216.1,420.8 227.1,422.4 239.2,416.9 250.5,426.1" stroke="#67b3a7" stroke-width="4.82"/><polyline points="403.9,315.8 399.3,302.3 389.1,300.6 384.1,314.3 382.9,310.6 375.9,297.7 366.4,304.4" stroke="#638dc5" stroke-width="4.85"/><polyline points="354.4,336.6 362.2,339.7 356.0,353.2 342.3,347.4 345.1,337.2 350.1,347.7 338.0,356.0" stroke="#638cc5" stroke-width="4.86"/><polyline points="252.2,347.9 258.4,359.1 269.5,357.0 278.8,368.5 289.3,373.2 301.0,370.4 300.0,355.7" stroke="#65b2a6" stroke-width="4.87"/><polyline points="507.0,247.8 508.3,260.2 493.9,264.5 489.6,259.9 476.5,255.2 471.0,242.1 472.1,241.6" stroke="#628cc5" stroke-width="4.87"/><polyline points="247.0,382.7 253.5,395.1 266.6,400.5 268.1,408.6 271.6,396.3 258.3,396.3 246.8,386.9" stroke="#65b1a5" stroke-width="4.87"/><polyline points="264.9,370.0 255.1,359.9 244.8,359.0 236.9,347.2 229.0,343.5 228.8,331.1 217.1,322.0" stroke="#64b1a5" stroke-width="4.89"/><polyline points="228.1,371.2 220.9,359.9 207.3,358.1 205.4,354.3 200.3,340.2 187.0,345.1 186.2,354.5" stroke="#63b1a5" stroke-width="4.90"/><polyline points="298.5,394.0 290.0,391.0 291.4,400.7 288.7,391.9 275.7,390.2 266.6,378.5 264.9,370.0" stroke="#63b1a5" stroke-width="4.90"/><polyline points="409.7,283.2 413.4,268.7 427.8,272.1 427.6,283.5 419.9,276.5 422.7,261.8 436.8,263.2" stroke="#618bc4" stroke-width="4.90"/><polyline points="451.0,208.7 446.9,222.7 459.4,227.5 455.4,221.2 441.1,225.3 445.9,239.4 454.4,238.4" stroke="#608ac4" stroke-width="4.91"/><polyline points="186.2,354.5 183.1,366.7 197.1,372.3 209.5,372.2 224.0,375.3 232.2,383.4 247.0,382.7" stroke="#63b0a4" stroke-width="4.92"/><polyline points="216.6,307.4 217.7,299.0 228.9,307.3 238.4,295.8 249.3,303.3 254.4,316.4 261.5,316.0" stroke="#62b0a4" stroke-width="4.92"/><polyline points="435.1,297.9 427.9,308.8 424.7,317.2 421.4,305.6 412.1,300.3 405.3,313.3 403.9,315.8" stroke="#5e89c3" stroke-width="4.96"/><polyline points="338.0,356.0 329.0,344.4" stroke="#5e88c3" stroke-width="4.96"/><polyline points="246.8,386.9 233.2,391.8 220.9,384.7 208.6,391.5 194.6,387.4 183.2,387.6 172.1,390.7" stroke="#5eaea2" stroke-width="5.00"/><polyline points="184.7,462.9 171.5,456.6 176.7,442.8 188.9,446.3 180.2,451.7 171.7,439.5 183.7,430.7" stroke="#5eaea2" stroke-width="5.00"/><polyline points="469.3,312.2 465.8,311.1 459.0,298.1 450.7,303.1 447.2,315.4 443.3,307.1 435.1,297.9" stroke="#5b87c2" stroke-width="5.01"/><polyline points="300.0,355.7 292.0,352.8 277.7,349.0 272.9,354.6 261.5,349.1 253.1,359.5 243.4,357.0" stroke="#5cada1" stroke-width="5.04"/><polyline points="527.6,267.4 535.5,279.8 529.9,286.9 515.6,284.6 517.7,290.0 516.8,304.1 505.9,301.2" stroke="#5985c1" stroke-width="5.06"/><polyline points="436.8,263.2 443.0,276.4 441.8,275.3 448.8,262.1 460.1,268.8 461.3,281.3 463.1,272.9" stroke="#5985c1" stroke-width="5.06"/><polyline points="505.9,301.2 497.1,294.0 491.7,306.6 488.2,313.0 482.7,300.1 474.1,298.1 469.3,312.2" stroke="#5885c1" stroke-width="5.06"/><polyline points="172.1,390.7 179.3,401.4 184.2,406.5 197.0,411.3 210.6,405.8 210.8,397.6 225.2,395.3" stroke="#5baca0" stroke-width="5.07"/><polyline points="501.7,205.7 502.7,218.3 494.5,229.9 505.4,240.0 506.1,253.0 516.2,260.1 527.6,267.4" stroke="#5884c1" stroke-width="5.07"/><polyline points="259.3,264.6 250.7,252.5 240.2,260.7 249.7,270.1 249.8,267.7 262.9,274.8 270.9,265.9" stroke="#ab77c0" stroke-width="5.07"/><polyline points="217.1,322.0 212.2,327.7 216.0,341.7 224.7,343.3 237.5,343.4 240.4,352.3 252.2,347.9" stroke="#59ac9f" stroke-width="5.10"/><polyline points="266.4,363.3 266.3,348.8 276.4,342.9 285.1,343.9 285.3,334.1 299.2,337.5 303.3,327.2" stroke="#59ab9e" stroke-width="5.11"/><polyline points="488.6,248.9 476.5,241.3 467.8,239.2 458.7,229.6 461.9,216.4 465.3,211.7 451.0,208.7" stroke="#5582c0" stroke-width="5.12"/><polyline points="225.2,395.3 239.1,397.2 250.4,387.4 263.8,393.8 277.3,393.2 288.0,403.5 298.5,394.0" stroke="#57aa9d" stroke-width="5.14"/><polyline points="463.1,272.9 473.0,264.0 481.3,275.7 482.2,279.8 484.7,266.0 494.3,262.7 488.6,248.9" stroke="#5380bf" stroke-width="5.17"/><polyline points="262.4,302.5 264.0,302.2 269.5,290.6 261.6,284.8" stroke="#54a99c" stroke-width="5.20"/><polyline points="148.9,409.9 160.8,408.4 161.3,400.8 169.7,405.2 184.1,401.5 182.7,395.0 172.5,385.5" stroke="#a771bd" stroke-width="5.20"/><polyline points="199.0,319.0 212.0,319.4 212.1,304.7 210.9,301.1 222.9,309.0 234.9,300.3 244.0,312.1" stroke="#a770bd" stroke-width="5.22"/><polyline points="244.0,312.1 239.3,318.8 238.6,305.9 247.6,295.9 241.9,282.2 249.1,269.9 259.3,264.6" stroke="#a66fbd" stroke-width="5.24"/><polyline points="183.7,430.7 188.8,438.9 175.6,437.6 175.1,422.8 188.8,421.1 184.1,417.6 196.9,411.1" stroke="#51a89a" stroke-width="5.25"/><polyline points="246.5,339.1 260.4,337.2 271.3,333.3 267.2,327.6 278.6,319.2 277.2,312.6 286.6,303.4" stroke="#50a79a" stroke-width="5.27"/><polyline points="243.4,357.0 231.7,363.0 224.3,366.5 236.2,371.8 245.1,377.1 256.8,370.6 266.4,363.3" stroke="#50a799" stroke-width="5.28"/><polyline points="172.5,385.5 181.3,382.3 192.9,379.8 184.4,371.1 180.0,363.3 194.1,361.4 198.2,357.0" stroke="#a56dbc" stroke-width="5.29"/><polyline points="198.2,357.0 186.7,347.5 190.0,341.8 204.4,340.0 201.0,333.5 190.4,324.6 199.0,319.0" stroke="#a46dbb" stroke-width="5.31"/><polyline points="196.9,411.1 208.7,406.3 211.7,391.7 223.3,392.5 215.2,395.6 205.1,385.0 215.4,374.6" stroke="#48a395" stroke-width="5.42"/><polyline points="215.4,374.6 224.5,378.7 219.0,368.4 221.1,356.3 233.1,347.7 243.9,349.7 246.5,339.1" stroke="#43a192" stroke-width="5.52"/></g><g fill="#E4572E" stroke="#ffffff" stroke-width="0.8"><circle cx="465.8" cy="269.1" r="3.5"/><circle cx="464.9" cy="266.2" r="3.5"/><circle cx="459.6" cy="266.6" r="3.5"/><circle cx="459.2" cy="271.2" r="3.5"/><circle cx="463.0" cy="270.8" r="3.5"/><circle cx="460.4" cy="268.9" r="3.5"/><circle cx="456.0" cy="265.7" r="3.5"/><circle cx="453.5" cy="264.0" r="3.5"/><circle cx="455.5" cy="265.5" r="3.5"/><circle cx="459.9" cy="268.6" r="3.5"/><circle cx="462.1" cy="270.3" r="3.5"/><circle cx="462.3" cy="270.3" r="3.5"/><circle cx="468.8" cy="263.0" r="3.5"/><circle cx="473.5" cy="262.7" r="3.5"/><circle cx="474.2" cy="265.7" r="3.5"/><circle cx="461.5" cy="266.3" r="3.5"/><circle cx="467.3" cy="271.5" r="3.5"/><circle cx="459.5" cy="274.6" r="3.5"/><circle cx="470.3" cy="268.8" r="3.5"/><circle cx="471.1" cy="271.8" r="3.5"/><circle cx="477.5" cy="259.5" r="3.5"/><circle cx="452.3" cy="263.3" r="3.5"/></g><rect x="44" y="549" width="12" height="12" rx="2" fill="#3B6FB6"/><text x="62" y="560" font-size="15" fill="#5B6B73">GPR84</text><rect x="234" y="549" width="12" height="12" rx="2" fill="#E0A030"/><text x="252" y="560" font-size="15" fill="#5B6B73">GNAI1</text><rect x="424" y="549" width="12" height="12" rx="2" fill="#3E9E8F"/><text x="442" y="560" font-size="15" fill="#5B6B73">GNB1</text><text x="44" y="588" font-size="15" fill="#5B6B73">PDB 9PT4 · クライオ電顕 3.03 Å</text><text x="664" y="100.0" font-size="16" font-weight="400" fill="#5B6B73">Nature Communications  ·  2026-01-01</text><text x="664" y="152.4" font-size="32" font-weight="700" fill="#16324F">Steric control of signaling</text><text x="664" y="193.4" font-size="32" font-weight="700" fill="#16324F">bias in the immunometabolic</text><text x="664" y="234.3" font-size="32" font-weight="700" fill="#16324F">receptor GPR84</text><line x1="664" y1="250.9" x2="720" y2="250.9" stroke="#1AA179" stroke-width="3"/><text x="664" y="284.9" font-size="14" font-weight="400" fill="#5B6B73">標的</text><text x="664" y="308.9" font-size="19" font-weight="500" fill="#16324F">GPR84–Gi（ヒト）</text><text x="664" y="343.6" font-size="14" font-weight="400" fill="#5B6B73">手法・分解能</text><text x="664" y="367.6" font-size="19" font-weight="500" fill="#16324F">クライオ電顕・3.03 Å</text><text x="664" y="402.3" font-size="14" font-weight="400" fill="#5B6B73">結合分子</text><text x="664" y="426.3" font-size="19" font-weight="500" fill="#16324F">OX04529</text><rect x="664" y="570" width="152" height="30" rx="15" fill="#16324F"/><text x="676" y="591" font-size="16" fill="#FFFFFF">創薬・モダリティ</text><rect x="826.0" y="570" width="104" height="30" rx="15" fill="#16324F"/><text x="838.0" y="591" font-size="16" fill="#FFFFFF">機構の解明</text><rect x="940.0" y="570" width="152" height="30" rx="15" fill="#16324F"/><text x="952.0" y="591" font-size="16" fill="#FFFFFF">創薬・モダリティ</text></svg>
