<svg xmlns="http://www.w3.org/2000/svg" width="1200" height="630" viewBox="0 0 1200 630" font-family="'Hiragino Sans','Hiragino Kaku Gothic ProN','Noto Sans JP','Yu Gothic',Meiryo,sans-serif"><rect width="1200" height="630" fill="#FFFFFF"/><rect x="24" y="24" width="600" height="582" rx="18" fill="#F3F5F9"/><g fill="none" stroke-linecap="round" stroke-linejoin="round"><polyline points="140.4,210.8 158.2,201.1 161.3,174.9 192.2,176.9 191.1,171.9 179.6,144.1 208.4,133.7" stroke="#aac0df" stroke-width="3.51"/><polyline points="483.5,326.0 488.6,355.2 473.3,367.5 466.0,394.5 435.5,389.8 439.8,395.4 449.2,424.1" stroke="#a9c0df" stroke-width="3.53"/><polyline points="250.4,401.7 265.0,393.6 290.2,408.6 291.3,390.9 313.3,369.4 308.0,352.8 277.2,354.8" stroke="#a8bfdf" stroke-width="3.54"/><polyline points="277.2,354.8 254.6,336.2" stroke="#a3bbdd" stroke-width="3.64"/><polyline points="413.6,159.4 414.5,161.2 384.5,157.0 381.3,186.9 398.0,196.6 386.5,174.0 358.8,188.2" stroke="#a1badc" stroke-width="3.66"/><polyline points="416.9,308.9 391.8,304.7 369.9,320.1 351.5,325.9 374.4,341.9 384.5,357.1 355.7,363.8" stroke="#a1badc" stroke-width="3.68"/><polyline points="238.2,257.5 259.8,242.7 279.4,235.6 256.8,220.8 246.0,206.2 273.6,198.0 284.9,188.4" stroke="#a0b9dc" stroke-width="3.70"/><polyline points="284.9,188.4 260.0,171.2 265.7,159.4 294.9,153.9 284.2,140.5 266.0,121.0 290.4,114.4" stroke="#9eb8db" stroke-width="3.73"/><polyline points="355.7,363.8 347.6,373.7 372.4,391.4 363.9,403.3 335.8,406.8 347.3,420.6 363.6,440.4" stroke="#9eb8db" stroke-width="3.73"/><polyline points="235.3,431.9 219.4,406.1 215.9,407.0 245.8,412.1 250.9,382.0 236.9,377.4 250.4,401.7" stroke="#9eb7db" stroke-width="3.74"/><polyline points="449.2,424.1 419.3,431.2 421.8,424.6 433.4,445.3 455.3,425.4 464.0,397.3 480.1,382.7" stroke="#9cb6da" stroke-width="3.77"/><polyline points="214.3,223.4 208.5,241.8 182.2,257.2 184.4,266.5 193.7,238.3 213.5,251.2 238.2,257.5" stroke="#9ab5da" stroke-width="3.80"/><polyline points="208.4,133.7 208.2,137.2 197.6,116.8 176.5,136.5 167.0,164.5 152.0,178.7 134.4,201.2" stroke="#9ab5d9" stroke-width="3.81"/><polyline points="205.6,156.1 200.2,183.7 181.4,203.0 169.7,223.9 144.9,241.3 146.5,238.3 140.4,210.8" stroke="#99b4d9" stroke-width="3.83"/><polyline points="401.9,365.1 417.6,339.0 423.0,319.9 449.1,304.6 446.3,294.1 437.2,322.3 416.9,308.9" stroke="#98b4d9" stroke-width="3.84"/><polyline points="363.6,440.4 338.3,447.9 325.6,456.6 350.7,473.5 363.0,456.4 392.9,453.5 402.4,425.1" stroke="#98b3d9" stroke-width="3.84"/><polyline points="290.4,114.4 305.8,107.5 283.3,88.7 269.4,107.7 239.4,109.7 228.2,137.4 205.6,156.1" stroke="#97b3d8" stroke-width="3.86"/><polyline points="402.4,425.1 426.5,406.9 432.0,379.5 450.2,358.0 461.3,337.3 486.4,320.2 483.5,326.0" stroke="#96b2d8" stroke-width="3.88"/><polyline points="536.7,241.4 523.9,214.1 516.2,211.3 495.9,190.3 471.0,205.1 464.1,182.7 491.1,184.6" stroke="#96b2d8" stroke-width="3.88"/><polyline points="449.0,86.0 420.7,89.1 426.7,116.9 440.1,129.6 416.4,119.9 396.5,134.3 413.6,159.4" stroke="#95b1d7" stroke-width="3.90"/><polyline points="105.4,346.2 110.4,353.6 134.8,371.3 159.0,356.2 166.3,378.8 139.1,376.3 140.3,345.6" stroke="#94b0d7" stroke-width="3.93"/><polyline points="480.1,382.7 499.2,361.0 501.6,336.6 519.4,311.8 513.6,287.7 513.8,259.8 536.7,241.4" stroke="#92afd7" stroke-width="3.95"/><polyline points="166.8,464.1 177.2,474.8 206.4,475.0 204.0,446.7 190.6,434.2 213.8,445.1 235.3,431.9" stroke="#92afd6" stroke-width="3.96"/><polyline points="134.4,201.2 132.1,224.3 114.6,248.9 119.3,273.2 118.1,300.7 93.6,318.4 105.4,346.2" stroke="#92afd6" stroke-width="3.97"/><polyline points="345.1,233.8 332.7,219.8 312.8,205.2 334.1,193.6 352.7,183.3 329.1,170.6 318.5,156.2" stroke="#91aed6" stroke-width="3.98"/><polyline points="315.4,322.7 287.3,331.3 299.5,345.0 319.3,359.0 296.0,368.5 278.0,379.2 301.1,391.2" stroke="#91aed6" stroke-width="3.98"/><polyline points="318.5,156.2 346.6,144.7 343.8,129.0 315.4,119.4 306.6,90.5 281.8,72.7 278.0,76.6" stroke="#8fadd5" stroke-width="4.02"/><polyline points="301.1,391.2 313.1,406.0 285.3,418.9 287.0,434.4 316.0,443.8 324.9,472.7 351.5,488.0" stroke="#8fadd5" stroke-width="4.02"/><polyline points="278.0,76.6 274.2,106.7 250.0,125.2 251.2,154.2 228.2,174.0 229.7,197.6 214.3,223.4" stroke="#8ba9d4" stroke-width="4.10"/><polyline points="351.5,488.0 356.0,484.6 357.0,454.4 382.0,437.4 381.2,408.5 404.3,388.5 401.9,365.1" stroke="#8aa9d4" stroke-width="4.11"/><polyline points="547.4,329.4 571.5,344.2 577.7,352.1 549.7,361.3 544.0,381.4 540.3,410.9 540.9,424.8" stroke="#89a8d3" stroke-width="4.13"/><polyline points="64.6,211.1 54.8,208.3 83.1,199.6 89.7,178.7 94.0,149.8 94.0,134.7 105.8,108.8" stroke="#89a8d3" stroke-width="4.13"/><polyline points="379.7,369.4 372.3,350.8 383.2,322.5 374.5,294.1 384.4,266.9 410.1,270.3 411.1,299.9" stroke="#89a8d3" stroke-width="4.13"/><polyline points="260.0,211.6 249.2,239.8 257.9,268.0 249.2,294.5 223.5,291.1 222.3,262.1 249.5,258.4" stroke="#89a8d3" stroke-width="4.13"/><polyline points="289.5,183.5 279.3,209.0 293.6,220.5 287.4,248.9 307.8,255.8 317.5,243.7 345.1,233.8" stroke="#88a8d3" stroke-width="4.15"/><polyline points="466.5,127.4 468.7,130.7 488.1,107.1 468.4,87.1 452.1,74.6 460.5,97.8 449.0,86.0" stroke="#88a7d2" stroke-width="4.16"/><polyline points="491.1,184.6 490.5,214.8 490.8,226.2 466.8,241.6 457.0,262.5 452.8,284.0 482.6,287.6" stroke="#86a6d2" stroke-width="4.18"/><polyline points="571.7,263.1 572.2,267.7 546.4,285.0 559.4,299.6 583.3,306.1 566.4,312.4 547.4,329.4" stroke="#86a6d2" stroke-width="4.19"/><polyline points="63.5,292.3 88.8,275.6 76.8,257.8 52.0,253.1 69.2,247.2 87.9,228.8 64.6,211.1" stroke="#85a6d2" stroke-width="4.20"/><polyline points="540.9,424.8 528.3,450.5 504.7,436.7 496.4,422.0 499.5,448.3 480.9,460.8 460.4,438.0" stroke="#85a5d1" stroke-width="4.21"/><polyline points="140.3,345.6 140.8,332.0 167.0,318.1 176.3,299.1 181.8,278.1 152.3,273.7 142.9,255.2" stroke="#84a5d1" stroke-width="4.22"/><polyline points="356.0,403.0 343.8,377.1 354.3,352.3 339.0,340.0 344.1,312.7 324.0,307.1 315.4,322.7" stroke="#84a5d1" stroke-width="4.23"/><polyline points="105.8,108.8 129.2,123.8 136.2,137.2 136.1,110.3 154.4,99.4 173.9,122.4 173.0,118.8" stroke="#84a4d1" stroke-width="4.23"/><polyline points="134.4,428.0 164.0,433.4 161.7,430.3 140.8,452.6 160.2,472.3 174.5,487.4 166.8,464.1" stroke="#82a3d0" stroke-width="4.27"/><polyline points="247.6,90.1 274.8,89.4 282.8,118.2 263.3,140.6 269.8,167.0 253.4,192.4 260.0,211.6" stroke="#81a2d0" stroke-width="4.29"/><polyline points="557.0,184.1 537.0,200.0 557.9,216.5 573.1,225.5 546.5,233.8 543.1,251.9 571.7,263.1" stroke="#81a2d0" stroke-width="4.29"/><polyline points="414.1,206.6 385.5,198.9 390.4,210.5 416.9,195.6 409.7,167.7 381.8,167.0 396.8,169.7" stroke="#81a2d0" stroke-width="4.29"/><polyline points="396.8,169.7 412.5,143.9 386.1,129.3 382.8,133.7 354.7,134.1 358.2,157.9 345.5,183.9" stroke="#80a2d0" stroke-width="4.30"/><polyline points="219.3,354.0 247.3,363.5 243.3,352.4 216.4,365.6 222.5,392.8 250.1,394.8 236.1,392.8" stroke="#80a2d0" stroke-width="4.31"/><polyline points="482.6,287.6 492.3,306.7 469.6,325.4 472.5,323.3 500.7,335.0 490.6,360.4 466.4,362.3" stroke="#80a1d0" stroke-width="4.31"/><polyline points="95.3,358.0 75.2,341.0 60.2,334.0 87.0,324.5 91.0,306.0 62.2,295.5 63.5,292.3" stroke="#7fa1d0" stroke-width="4.31"/><polyline points="236.1,392.8 220.1,417.9 245.5,433.0 248.5,428.1 277.0,426.5 274.3,402.7 274.3,402.7" stroke="#7fa1cf" stroke-width="4.32"/><polyline points="407.4,488.6 383.8,471.1 358.4,470.5 350.2,442.3 370.1,420.5 363.0,394.8 379.7,369.4" stroke="#7ea1cf" stroke-width="4.34"/><polyline points="142.9,255.2 166.1,236.6 162.1,237.8 133.5,227.4 143.3,202.6 167.7,198.9 149.5,199.5" stroke="#7ea0cf" stroke-width="4.35"/><polyline points="411.1,299.9 384.1,303.4 397.5,293.6 418.5,315.5 395.7,335.7 381.8,325.5 407.7,328.7" stroke="#7ea0cf" stroke-width="4.35"/><polyline points="460.4,438.0 460.7,443.4 452.6,472.7 429.5,464.7 417.2,446.9 418.3,469.7 407.4,488.6" stroke="#7da0cf" stroke-width="4.36"/><polyline points="173.0,118.8 179.3,89.4 201.8,97.2 215.7,114.5 215.7,92.0 225.7,71.4 247.6,90.1" stroke="#7d9fcf" stroke-width="4.37"/><polyline points="596.0,154.4 575.8,136.2 573.3,140.3 543.7,148.9 550.9,167.3 574.6,176.9 557.0,184.1" stroke="#7c9fce" stroke-width="4.38"/><polyline points="59.8,422.2 54.1,415.5 84.0,407.8 79.1,390.6 56.2,376.5 72.9,371.9 95.3,358.0" stroke="#7c9fce" stroke-width="4.38"/><polyline points="249.5,258.4 237.7,268.0 215.7,247.3 237.2,226.2 252.6,235.8 227.4,233.6 221.2,205.9" stroke="#7b9ece" stroke-width="4.40"/><polyline points="487.5,202.1 505.1,181.0 481.5,162.8 470.6,168.0 496.7,157.5 496.6,131.8 466.5,127.4" stroke="#7a9dcd" stroke-width="4.42"/><polyline points="166.1,359.0 147.1,358.4 128.4,378.6 151.8,397.3 162.5,393.6 135.8,402.9 134.4,428.0" stroke="#779bcc" stroke-width="4.48"/><polyline points="466.4,362.3 485.9,361.2 502.8,382.8 479.4,401.8 468.1,396.9 495.1,403.2 495.0,429.8" stroke="#7599cb" stroke-width="4.52"/><polyline points="149.5,199.5 131.2,178.9 154.7,160.5 165.7,164.6 139.8,154.9 138.4,129.8 167.9,124.1" stroke="#7398cb" stroke-width="4.55"/><polyline points="385.3,260.5 397.8,270.0 419.4,248.3 397.8,226.9 383.1,236.5 409.5,235.5 414.1,206.6" stroke="#7297ca" stroke-width="4.58"/><polyline points="250.1,300.9 237.8,291.7 215.4,312.2 236.5,333.8 251.2,325.0 226.0,326.1 219.3,354.0" stroke="#7197ca" stroke-width="4.59"/><polyline points="461.3,120.2 454.9,91.1 433.0,98.9 420.1,115.4 422.3,93.1 410.5,72.5 388.3,91.2" stroke="#7196ca" stroke-width="4.60"/><polyline points="575.8,428.6 574.2,424.5 545.4,413.7 551.1,395.8 573.9,383.3 556.3,377.0 536.3,361.6" stroke="#7096ca" stroke-width="4.61"/><polyline points="55.8,130.6 55.9,141.8 86.2,147.6 81.8,164.7 58.6,178.6 75.0,183.9 97.4,198.1" stroke="#7096ca" stroke-width="4.62"/><polyline points="493.7,257.8 470.8,239.5 474.3,241.4 502.8,229.9 491.8,204.2 467.7,204.4 487.5,202.1" stroke="#6f96ca" stroke-width="4.62"/><polyline points="169.4,439.9 176.3,468.7 198.9,460.8 211.8,444.2 210.0,467.3 222.2,487.6 245.0,470.0" stroke="#6f95c9" stroke-width="4.63"/><polyline points="407.7,328.7 412.5,357.5 383.9,364.0 389.0,351.6 415.6,366.8 407.7,394.3 380.1,395.5" stroke="#6e95c9" stroke-width="4.64"/><polyline points="239.5,167.3 222.8,142.7 248.7,127.5 251.5,131.8 279.5,134.4 277.3,157.9 289.5,183.5" stroke="#6d94c9" stroke-width="4.67"/><polyline points="151.9,284.1 142.0,302.3 164.6,321.6 161.1,320.0 132.5,330.4 141.6,355.6 166.1,359.0" stroke="#6d93c8" stroke-width="4.68"/><polyline points="97.4,198.1 77.2,214.7 62.3,221.5 88.7,232.0 91.7,250.8 62.5,260.3 64.0,264.9" stroke="#6c93c8" stroke-width="4.68"/><polyline points="221.2,205.9 249.6,197.2 245.6,208.6 218.5,194.5 225.0,167.1 252.7,165.2 239.5,167.3" stroke="#6c93c8" stroke-width="4.68"/><polyline points="388.3,91.2 361.3,89.6 352.7,118.5 372.0,140.6 366.3,167.1 382.0,193.2 374.7,212.1" stroke="#6c93c8" stroke-width="4.68"/><polyline points="536.3,361.6 557.7,345.7 571.9,339.9 546.1,329.3 543.5,311.6 571.8,299.6 570.6,296.9" stroke="#6c93c8" stroke-width="4.69"/><polyline points="245.0,470.0 271.7,471.8 279.3,442.5 260.2,419.6 267.5,393.3 251.8,367.5 259.2,349.0" stroke="#6b92c8" stroke-width="4.71"/><polyline points="380.1,395.5 395.4,392.0 410.9,417.4 384.2,432.2 380.1,429.5 352.2,426.9 356.0,403.0" stroke="#6a92c8" stroke-width="4.72"/><polyline points="530.4,112.6 506.8,127.2 499.1,140.0 499.7,113.5 482.6,101.4 461.8,123.6 461.3,120.2" stroke="#6a91c7" stroke-width="4.73"/><polyline points="495.0,429.8 465.3,435.4 466.7,432.5 487.7,454.7 468.2,474.8 451.7,487.9 459.5,465.7" stroke="#6991c7" stroke-width="4.74"/><polyline points="491.9,347.8 490.0,337.1 466.8,319.5 458.1,300.3 453.7,279.4 483.5,277.1 493.7,257.8" stroke="#6890c7" stroke-width="4.76"/><polyline points="100.8,448.0 124.6,433.6 132.2,420.0 131.0,446.6 149.4,458.6 169.3,435.9 169.4,439.9" stroke="#6890c7" stroke-width="4.77"/><polyline points="274.3,402.7 286.8,377.2 277.1,351.2 293.4,339.1 287.7,312.3 308.0,307.5 318.2,320.5" stroke="#6890c7" stroke-width="4.77"/><polyline points="570.6,296.9 545.5,279.4 559.0,265.6 583.6,261.2 565.9,252.0 548.2,233.7 573.7,218.6" stroke="#668fc6" stroke-width="4.79"/><polyline points="142.2,181.6 142.6,211.8 143.4,222.6 167.2,239.9 176.6,259.4 181.6,280.8 151.9,284.1" stroke="#668fc6" stroke-width="4.79"/><polyline points="64.0,264.9 89.5,280.9 77.7,299.0 52.2,303.5 69.0,309.6 86.9,328.6 62.8,344.7" stroke="#668fc6" stroke-width="4.79"/><polyline points="167.9,124.1 165.7,128.0 145.6,104.9 164.9,85.0 179.8,71.8 171.2,94.9 182.9,84.3" stroke="#668fc6" stroke-width="4.80"/><polyline points="345.5,183.9 355.7,209.5 340.5,221.1 345.9,248.7 325.9,253.5 316.3,240.7 289.0,230.2" stroke="#658ec6" stroke-width="4.83"/><polyline points="573.7,218.6 579.8,211.3 551.3,201.7 546.8,182.1 540.5,153.4 540.0,139.0 530.4,112.6" stroke="#648dc5" stroke-width="4.84"/><polyline points="374.7,212.1 385.1,240.3 376.2,268.7 386.0,295.5 411.5,292.0 412.8,262.7 385.3,260.5" stroke="#648dc5" stroke-width="4.85"/><polyline points="259.2,349.0 249.3,320.4 258.9,292.2 249.8,265.3 224.0,268.1 222.7,297.2 250.1,300.9" stroke="#638cc5" stroke-width="4.86"/><polyline points="62.8,344.7 53.8,347.1 82.0,356.4 87.6,378.0 91.2,406.7 91.3,421.7 100.8,448.0" stroke="#638cc5" stroke-width="4.86"/><polyline points="357.9,76.0 360.6,106.5 384.5,124.9 384.3,153.7 407.1,173.3 405.3,197.6 420.3,223.6" stroke="#628cc5" stroke-width="4.87"/><polyline points="278.7,488.2 273.6,483.5 272.5,453.0 248.4,434.6 249.3,405.6 226.7,385.5 229.3,361.6" stroke="#618bc4" stroke-width="4.90"/><polyline points="317.1,155.7 289.7,144.2 290.6,128.7 319.4,118.7 327.5,89.8 353.0,72.9 357.9,76.0" stroke="#5e89c3" stroke-width="4.95"/><polyline points="328.8,391.0 316.8,404.7 344.5,416.0 343.3,432.1 314.3,442.3 304.5,471.1 278.7,488.2" stroke="#5c87c2" stroke-width="4.99"/><polyline points="289.0,230.2 302.0,217.6 321.8,203.7 299.1,193.2 281.0,182.7 304.4,170.3 317.1,155.7" stroke="#5c87c2" stroke-width="5.00"/><polyline points="501.0,203.8 502.1,227.5 520.2,251.5 515.2,274.5 514.5,302.6 539.8,318.9 526.1,345.7" stroke="#5b86c2" stroke-width="5.02"/><polyline points="318.2,320.5 345.0,330.9 330.5,343.3 311.8,357.0 334.1,367.7 352.5,378.3 328.8,391.0" stroke="#5b86c2" stroke-width="5.02"/><polyline points="150.8,379.3 133.1,356.4 131.8,333.3 114.9,308.2 119.4,283.8 118.9,256.5 94.7,238.1" stroke="#5a86c2" stroke-width="5.03"/><polyline points="459.5,465.7 448.9,474.8 419.4,473.1 423.0,446.7 436.8,434.4 413.7,444.3 393.5,429.7" stroke="#5985c1" stroke-width="5.06"/><polyline points="182.9,84.3 212.0,85.1 208.3,112.7 195.6,124.2 219.4,113.5 239.4,127.9 222.3,153.1" stroke="#5885c1" stroke-width="5.06"/><polyline points="526.1,345.7 518.6,349.3 493.6,366.9 468.7,355.7 464.8,380.7 491.7,378.4 491.9,347.8" stroke="#5885c1" stroke-width="5.06"/><polyline points="94.7,238.1 107.6,210.8 112.3,205.7 137.1,188.2 161.6,202.2 168.9,179.3 142.2,181.6" stroke="#5784c1" stroke-width="5.08"/><polyline points="344.4,114.6 330.4,106.0 354.7,89.0 366.5,107.2 396.4,111.7 406.0,139.9 429.7,157.4" stroke="#5683c0" stroke-width="5.11"/><polyline points="227.6,420.4 204.3,402.7 198.4,375.2 180.4,355.2 169.5,333.8 144.6,316.4 146.7,318.9" stroke="#5683c0" stroke-width="5.11"/><polyline points="429.7,157.4 435.4,184.7 453.5,204.9 464.9,225.7 489.5,243.2 486.5,239.2 496.4,211.8" stroke="#5482bf" stroke-width="5.14"/><polyline points="229.3,361.6 214.0,335.9 208.1,317.1 182.0,301.1 184.3,291.1 192.0,319.2 213.7,307.7" stroke="#5481bf" stroke-width="5.15"/><polyline points="431.3,140.1 428.5,139.6 437.0,117.7 458.8,138.0 468.2,166.5 483.3,180.8 501.0,203.8" stroke="#5381bf" stroke-width="5.16"/><polyline points="265.8,435.5 290.0,444.3 304.4,453.3 280.7,471.4 267.4,453.1 237.4,448.6 227.6,420.4" stroke="#5381bf" stroke-width="5.17"/><polyline points="420.3,223.6 425.8,242.5 451.3,259.1 448.4,267.2 439.6,239.5 418.8,253.8 393.7,257.6" stroke="#5280bf" stroke-width="5.18"/><polyline points="352.1,189.3 377.0,170.8 369.0,159.1 340.3,154.9 350.7,141.2 368.3,122.4 344.4,114.6" stroke="#4f7ebd" stroke-width="5.24"/><polyline points="177.2,411.9 205.8,422.9 207.4,419.7 197.3,440.1 175.4,421.4 165.9,393.5 150.8,379.3" stroke="#4f7ebd" stroke-width="5.24"/><polyline points="273.9,360.2 281.0,369.1 257.5,388.6 265.6,399.3 294.4,403.6 283.4,417.2 265.8,435.5" stroke="#4e7dbd" stroke-width="5.26"/><polyline points="393.5,429.7 410.8,404.8 414.1,404.4 384.3,408.0 380.1,378.0 395.3,373.2 381.3,396.0" stroke="#4e7dbd" stroke-width="5.27"/><polyline points="393.7,257.6 372.9,242.1 354.6,235.5 377.6,220.4 388.3,205.2 360.0,198.3 352.1,189.3" stroke="#4d7cbd" stroke-width="5.28"/><polyline points="213.7,307.7 238.9,301.8 259.9,316.4 278.7,323.4 256.0,338.3 245.3,352.7 273.9,360.2" stroke="#4b7bbc" stroke-width="5.31"/><polyline points="222.3,153.1 219.9,153.3 249.7,148.2 253.4,178.5 240.4,182.4 256.0,159.7 277.4,167.4" stroke="#4b7abc" stroke-width="5.33"/><polyline points="354.5,352.5 378.0,333.3 373.2,333.0 347.9,316.7" stroke="#4576ba" stroke-width="5.43"/><polyline points="277.4,167.4 300.0,162.0 318.4,186.4 310.9,208.8 280.1,206.5" stroke="#4476ba" stroke-width="5.44"/><polyline points="381.3,396.0 367.0,384.6 341.8,400.6 340.2,386.3 317.3,366.4 324.6,348.9 354.5,352.5" stroke="#4475b9" stroke-width="5.46"/><polyline points="496.4,211.8 470.2,198.9 463.9,198.7 442.6,177.1 465.6,156.3 462.3,138.9 431.3,140.1" stroke="#4375b9" stroke-width="5.47"/><polyline points="146.7,318.9 141.2,346.7 157.7,357.2 161.7,380.8 192.1,377.3 189.1,384.8 177.2,411.9" stroke="#4375b9" stroke-width="5.47"/></g><g fill="#E4572E" stroke="#ffffff" stroke-width="0.8"><circle cx="397.7" cy="250.3" r="5.5"/><circle cx="404.6" cy="243.2" r="5.5"/><circle cx="410.2" cy="249.2" r="5.5"/><circle cx="412.0" cy="260.9" r="5.5"/><circle cx="401.6" cy="266.5" r="5.5"/><circle cx="403.7" cy="272.5" r="5.5"/><circle cx="420.5" cy="241.0" r="5.5"/><circle cx="422.9" cy="252.9" r="5.5"/><circle cx="412.3" cy="236.7" r="5.5"/><circle cx="389.5" cy="244.4" r="5.5"/><circle cx="420.6" cy="244.1" r="5.5"/><circle cx="416.7" cy="266.7" r="5.5"/><circle cx="393.1" cy="259.2" r="5.5"/><circle cx="406.2" cy="282.9" r="5.5"/><circle cx="425.6" cy="234.4" r="5.5"/><circle cx="417.4" cy="287.6" r="5.5"/><circle cx="422.2" cy="280.4" r="5.5"/><circle cx="415.3" cy="298.7" r="5.5"/><circle cx="425.2" cy="289.4" r="5.5"/><circle cx="240.9" cy="248.1" r="5.5"/><circle cx="231.5" cy="241.2" r="5.5"/><circle cx="227.2" cy="244.9" r="5.5"/><circle cx="224.1" cy="256.5" r="5.5"/><circle cx="233.0" cy="263.2" r="5.5"/><circle cx="228.0" cy="274.1" r="5.5"/><circle cx="217.5" cy="232.2" r="5.5"/><circle cx="209.0" cy="233.6" r="5.5"/><circle cx="223.1" cy="241.7" r="5.5"/><circle cx="248.5" cy="248.6" r="5.5"/><circle cx="217.4" cy="239.2" r="5.5"/><circle cx="221.5" cy="259.6" r="5.5"/><circle cx="236.9" cy="259.4" r="5.5"/><circle cx="221.9" cy="275.8" r="5.5"/><circle cx="219.2" cy="223.5" r="5.5"/><circle cx="214.2" cy="286.7" r="5.5"/><circle cx="222.2" cy="295.4" r="5.5"/><circle cx="209.9" cy="289.5" r="5.5"/><circle cx="205.2" cy="285.2" r="5.5"/><circle cx="238.7" cy="311.2" r="5.5"/><circle cx="229.3" cy="318.1" r="5.5"/><circle cx="225.7" cy="314.2" r="5.5"/><circle cx="222.4" cy="302.5" r="5.5"/><circle cx="231.3" cy="295.6" r="5.5"/><circle cx="227.5" cy="284.6" r="5.5"/><circle cx="214.6" cy="325.9" r="5.5"/><circle cx="205.8" cy="323.8" r="5.5"/><circle cx="221.0" cy="316.7" r="5.5"/><circle cx="246.0" cy="312.7" r="5.5"/><circle cx="216.7" cy="320.2" r="5.5"/><circle cx="219.8" cy="300.0" r="5.5"/><circle cx="235.4" cy="299.7" r="5.5"/><circle cx="220.4" cy="283.6" r="5.5"/><circle cx="216.2" cy="334.7" r="5.5"/><circle cx="213.6" cy="273.1" r="5.5"/><circle cx="221.7" cy="265.4" r="5.5"/><circle cx="209.8" cy="270.0" r="5.5"/><circle cx="205.0" cy="273.6" r="5.5"/><circle cx="394.8" cy="311.6" r="5.5"/><circle cx="403.7" cy="318.6" r="5.5"/><circle cx="407.3" cy="315.4" r="5.5"/><circle cx="409.7" cy="303.6" r="5.5"/><circle cx="400.7" cy="296.5" r="5.5"/><circle cx="404.0" cy="284.8" r="5.5"/><circle cx="420.1" cy="325.4" r="5.5"/><circle cx="429.8" cy="324.3" r="5.5"/><circle cx="412.7" cy="316.6" r="5.5"/><circle cx="387.5" cy="312.5" r="5.5"/><circle cx="416.8" cy="321.7" r="5.5"/><circle cx="412.3" cy="301.0" r="5.5"/><circle cx="397.5" cy="300.1" r="5.5"/><circle cx="412.8" cy="284.9" r="5.5"/><circle cx="418.4" cy="333.3" r="5.5"/><circle cx="419.2" cy="273.4" r="5.5"/><circle cx="427.4" cy="275.7" r="5.5"/><circle cx="411.5" cy="264.5" r="5.5"/><circle cx="423.9" cy="270.7" r="5.5"/></g><circle cx="50" cy="547" r="6" fill="#E4572E"/><text x="62" y="552" font-size="15" fill="#5A6478">リガンド</text><text x="44" y="584" font-size="15" fill="#5A6478">PDB 8TX9 · X線結晶構造解析 2.01 Å</text><text x="664" y="64.0" font-size="17" font-weight="400" fill="#5A6478">構造生物学デイリー（仮）  2026-10-07</text><text x="664" y="128.0" font-size="36" font-weight="700" fill="#1F2A44">代謝物ManNAc-6-Pが3分子をま</text><text x="664" y="175.5" font-size="36" font-weight="700" fill="#1F2A44">たいで四量体を固定し、DNA結</text><text x="664" y="223.0" font-size="36" font-weight="700" fill="#1F2A44">合力は変えない</text><text x="664" y="298.6" font-size="15" font-weight="400" fill="#5A6478">標的</text><text x="664" y="325.6" font-size="21" font-weight="500" fill="#1F2A44">SpNanR（肺炎球菌）</text><text x="664" y="366.9" font-size="15" font-weight="400" fill="#5A6478">手法・分解能</text><text x="664" y="393.9" font-size="21" font-weight="500" fill="#1F2A44">X線結晶構造解析・2.01–2.99 Å（4 構造）</text><text x="664" y="435.2" font-size="15" font-weight="400" fill="#5A6478">結合分子</text><text x="664" y="462.2" font-size="21" font-weight="500" fill="#1F2A44">ManNAc-6-P（BMX）</text><text x="664" y="503.5" font-size="15" font-weight="400" fill="#5A6478">掲載誌</text><text x="664" y="530.5" font-size="21" font-weight="500" fill="#1F2A44">Nucleic Acids Res（2026-10-05）</text><rect x="664" y="566" width="72" height="32" rx="16" fill="#1F2A44"/><text x="676" y="588" font-size="16" fill="#FFFFFF">初構造</text><rect x="746.0" y="566" width="104" height="32" rx="16" fill="#1F2A44"/><text x="758.0" y="588" font-size="16" fill="#FFFFFF">機構の解明</text><rect x="860.0" y="566" width="104" height="32" rx="16" fill="#1F2A44"/><text x="872.0" y="588" font-size="16" fill="#FFFFFF">機構の解明</text></svg>
