<svg xmlns="http://www.w3.org/2000/svg" width="1200" height="630" viewBox="0 0 1200 630" font-family="'Hiragino Sans','Hiragino Kaku Gothic ProN','Noto Sans JP','Yu Gothic',Meiryo,sans-serif"><rect width="1200" height="630" fill="#FFFFFF"/><rect width="1200" height="56" fill="#16324F"/><rect x="24" y="10" width="36" height="36" rx="8.64" fill="#33456E"/><path d="M31.02,24.52L30.59,24.55M30.59,24.55L30.18,24.61M30.18,24.61L29.77,24.73M29.77,24.73L29.37,24.89M29.37,24.89L28.99,25.10M28.99,25.10L28.63,25.35M28.63,25.35L28.28,25.64M28.28,25.64L27.97,25.96M27.97,25.96L27.68,26.33M27.68,26.33L27.42,26.72M27.42,26.72L27.20,27.15M27.20,27.15L27.01,27.61M27.01,27.61L26.85,28.08M26.85,28.08L26.74,28.58M26.74,28.58L26.66,29.10M26.66,29.10L26.63,29.62M26.63,29.62L26.64,30.16M26.64,30.16L26.69,30.70M26.69,30.70L26.78,31.24M26.78,31.24L26.92,31.78M26.92,31.78L27.09,32.31M27.09,32.31L27.31,32.83M27.31,32.83L27.57,33.33M27.57,33.33L27.87,33.81M27.87,33.81L28.20,34.27M28.20,34.27L28.57,34.71M28.57,34.71L28.98,35.12M28.98,35.12L29.41,35.49M29.41,35.49L29.88,35.83M29.88,35.83L30.36,36.13M30.36,36.13L30.88,36.39M30.88,36.39L31.41,36.61M31.41,36.61L31.96,36.78M31.96,36.78L32.52,36.91M32.52,36.91L33.09,36.99M33.09,36.99L33.67,37.03M33.67,37.03L34.25,37.02M36.90,22.88L36.48,22.89M36.48,22.89L36.06,22.94M36.06,22.94L35.64,23.05M35.64,23.05L35.24,23.20M35.24,23.20L34.86,23.39M34.86,23.39L34.49,23.63M34.49,23.63L34.14,23.90M34.14,23.90L33.82,24.22M33.82,24.22L33.52,24.57M33.52,24.57L33.25,24.96M33.25,24.96L33.02,25.38M33.02,25.38L32.82,25.83M32.82,25.83L32.65,26.30M32.65,26.30L32.53,26.79M32.53,26.79L32.44,27.30M32.44,27.30L32.40,27.83M32.40,27.83L32.39,28.36M32.39,28.36L32.43,28.90M32.43,28.90L32.51,29.44M32.51,29.44L32.63,29.98M32.63,29.98L32.80,30.51M32.80,30.51L33.01,31.03M33.01,31.03L33.25,31.54M33.25,31.54L33.54,32.03M33.54,32.03L33.86,32.50M33.86,32.50L34.22,32.94M34.22,32.94L34.62,33.36M34.62,33.36L35.04,33.74M35.04,33.74L35.50,34.09M35.50,34.09L35.98,34.40M35.98,34.40L36.49,34.67M36.49,34.67L37.01,34.90M37.01,34.90L37.56,35.09M37.56,35.09L38.12,35.23M38.12,35.23L38.68,35.33M38.68,35.33L39.26,35.38M39.26,35.38L39.84,35.38M39.84,35.38L40.42,35.33M42.36,21.24L41.93,21.28M41.93,21.28L41.52,21.37M41.52,21.37L41.12,21.50M41.12,21.50L40.72,21.68M40.72,21.68L40.35,21.91M40.35,21.91L40.00,22.17M40.00,22.17L39.67,22.48M39.67,22.48L39.36,22.82M39.36,22.82L39.09,23.20M39.09,23.20L38.84,23.61M38.84,23.61L38.63,24.05M38.63,24.05L38.46,24.52M38.46,24.52L38.32,25.00M38.32,25.00L38.22,25.51M38.22,25.51L38.17,26.03M38.17,26.03L38.15,26.56M38.15,26.56L38.18,27.10M38.18,27.10L38.24,27.64M38.24,27.64L38.35,28.18M38.35,28.18L38.51,28.71M38.51,28.71L38.70,29.24M38.70,29.24L38.94,29.75M38.94,29.75L39.21,30.25M39.21,30.25L39.53,30.72M39.53,30.72L39.88,31.17M39.88,31.17L40.26,31.60M40.26,31.60L40.68,31.99M40.68,31.99L41.13,32.35M41.13,32.35L41.60,32.67M41.60,32.67L42.10,32.95M42.10,32.95L42.62,33.20M42.62,33.20L43.16,33.40M43.16,33.40L43.72,33.55M43.72,33.55L44.28,33.66M44.28,33.66L44.86,33.72M44.86,33.72L45.43,33.74M45.43,33.74L46.01,33.71M48.24,19.59L47.81,19.62M47.81,19.62L47.40,19.69M47.40,19.69L46.99,19.81M46.99,19.81L46.59,19.98M46.59,19.98L46.22,20.19M46.22,20.19L45.86,20.45M45.86,20.45L45.52,20.74M45.52,20.74L45.21,21.08M45.21,21.08L44.92,21.45M44.92,21.45L44.67,21.85M44.67,21.85L44.45,22.28M44.45,22.28L44.26,22.74M44.26,22.74L44.12,23.22M44.12,23.22L44.01,23.72M44.01,23.72L43.94,24.23M43.94,24.23L43.91,24.76M43.91,24.76L43.92,25.30M43.92,25.30L43.98,25.84" stroke="#8FD3BE" stroke-width="3.48" stroke-linecap="round" fill="none"/><path d="M35.70,31.60L35.76,31.02M35.76,31.02L35.77,30.43M35.77,30.43L35.74,29.86M35.74,29.86L35.67,29.30M35.67,29.30L35.56,28.76M35.56,28.76L35.42,28.23M35.42,28.23L35.23,27.73M35.23,27.73L35.01,27.25M35.01,27.25L34.76,26.81M34.76,26.81L34.47,26.39M34.47,26.39L34.16,26.02M34.16,26.02L33.82,25.68M33.82,25.68L33.46,25.38M33.46,25.38L33.09,25.12M33.09,25.12L32.69,24.91M32.69,24.91L32.28,24.74M32.28,24.74L31.87,24.62M31.87,24.62L31.44,24.55M31.44,24.55L31.02,24.52M34.25,37.02L34.82,36.96M34.82,36.96L35.40,36.85M35.40,36.85L35.96,36.70M35.96,36.70L36.52,36.50M36.52,36.50L37.06,36.25M37.06,36.25L37.58,35.97M37.58,35.97L38.08,35.64M38.08,35.64L38.55,35.27M38.55,35.27L39.00,34.87M39.00,34.87L39.42,34.43M39.42,34.43L39.80,33.96M39.80,33.96L40.15,33.47M40.15,33.47L40.47,32.95M40.47,32.95L40.74,32.41M40.74,32.41L40.98,31.85M40.98,31.85L41.17,31.28M41.17,31.28L41.33,30.71M41.33,30.71L41.44,30.12M41.44,30.12L41.50,29.54M41.50,29.54L41.53,28.95M41.53,28.95L41.51,28.38M41.51,28.38L41.46,27.81M41.46,27.81L41.36,27.26M41.36,27.26L41.22,26.73M41.22,26.73L41.05,26.22M41.05,26.22L40.84,25.74M40.84,25.74L40.59,25.28M40.59,25.28L40.32,24.86M40.32,24.86L40.01,24.47M40.01,24.47L39.68,24.12M39.68,24.12L39.33,23.81M39.33,23.81L38.96,23.54M38.96,23.54L38.56,23.32M38.56,23.32L38.16,23.14M38.16,23.14L37.75,23.01M37.75,23.01L37.32,22.92M37.32,22.92L36.90,22.88M40.42,35.33L41.00,35.24M41.00,35.24L41.56,35.10M41.56,35.10L42.12,34.91M42.12,34.91L42.67,34.68M42.67,34.68L43.19,34.41M43.19,34.41L43.70,34.09M43.70,34.09L44.18,33.74M44.18,33.74L44.64,33.34M44.64,33.34L45.06,32.91M45.06,32.91L45.46,32.46M45.46,32.46L45.82,31.97M45.82,31.97L46.14,31.46M46.14,31.46L46.43,30.92M46.43,30.92L46.67,30.37M46.67,30.37L46.88,29.80M46.88,29.80L47.05,29.23M47.05,29.23L47.17,28.64M47.17,28.64L47.25,28.06M47.25,28.06L47.29,27.47M47.29,27.47L47.28,26.90M47.28,26.90L47.24,26.33M47.24,26.33L47.15,25.77M47.15,25.77L47.03,25.24M47.03,25.24L46.86,24.72M46.86,24.72L46.66,24.23M46.66,24.23L46.43,23.77M46.43,23.77L46.16,23.33M46.16,23.33L45.86,22.94M45.86,22.94L45.54,22.57M45.54,22.57L45.19,22.25M45.19,22.25L44.82,21.97M44.82,21.97L44.44,21.73M44.44,21.73L44.04,21.54M44.04,21.54L43.62,21.39M43.62,21.39L43.20,21.29M43.20,21.29L42.78,21.24M42.78,21.24L42.36,21.24M46.01,33.71L46.59,33.63M46.59,33.63L47.16,33.50M47.16,33.50L47.72,33.33M47.72,33.33L48.27,33.11M48.27,33.11L48.80,32.84M48.80,32.84L49.32,32.54M49.32,32.54L49.80,32.20M49.80,32.20L50.27,31.81M50.27,31.81L50.70,31.39M50.70,31.39L51.11,30.94M51.11,30.94L51.48,30.46M51.48,30.46L51.81,29.96M51.81,29.96L52.11,29.43M52.11,29.43L52.37,28.88M52.37,28.88L52.59,28.32M52.59,28.32L52.76,27.75M52.76,27.75L52.90,27.16M52.90,27.16L52.99,26.58M52.99,26.58L53.04,25.99M53.04,25.99L53.05,25.41M53.05,25.41L53.02,24.84M53.02,24.84L52.94,24.28M52.94,24.28L52.83,23.74M52.83,23.74L52.67,23.22M52.67,23.22L52.48,22.72M52.48,22.72L52.26,22.25M52.26,22.25L52.00,21.81M52.00,21.81L51.71,21.40M51.71,21.40L51.40,21.03M51.40,21.03L51.05,20.69M51.05,20.69L50.69,20.40M50.69,20.40L50.31,20.15M50.31,20.15L49.91,19.95M49.91,19.95L49.50,19.79M49.50,19.79L49.09,19.67M49.09,19.67L48.66,19.61M48.66,19.61L48.24,19.59" stroke="#FFFFFF" stroke-width="3.78" stroke-linecap="round" fill="none"/><circle cx="52.98" cy="17.38" r="3.31" fill="#35C99A" stroke="#33456E" stroke-width="0.72"/><text x="72" y="36" font-size="21" font-weight="700" fill="#FFFFFF">FoldFeed</text><text x="271" y="36" font-size="12" letter-spacing="2" fill="#AFC0DD">構造生物学デイリー · β</text><text x="1176" y="36" font-size="17" fill="#D5DDEB" text-anchor="end">2026-10-10</text><rect x="24" y="76" width="600" height="530" rx="18" fill="#EDF5F1"/><text text-anchor="middle" x="324.0" y="331.0" font-size="26" font-weight="600" fill="#5B6B73">PDB ID は論文の補足資料に記載</text><text text-anchor="middle" x="324.0" y="371.0" font-size="18" font-weight="400" fill="#5B6B73">（座標を自動取得できないため構造図なし）</text><text x="664" y="100.0" font-size="16" font-weight="400" fill="#5B6B73">Biochemistry  ·  2026-10-09</text><text x="664" y="152.4" font-size="32" font-weight="700" fill="#16324F">Characterization of</text><text x="664" y="193.4" font-size="32" font-weight="700" fill="#16324F">Regioisomeric Conjugates</text><text x="664" y="234.3" font-size="32" font-weight="700" fill="#16324F">Arising from Pixantrone at</text><text x="664" y="275.3" font-size="32" font-weight="700" fill="#16324F">AP Sites in DNA</text><line x1="664" y1="291.8" x2="720" y2="291.8" stroke="#1AA179" stroke-width="3"/><text x="664" y="325.8" font-size="14" font-weight="400" fill="#5B6B73">標的</text><text x="664" y="349.8" font-size="19" font-weight="500" fill="#16324F">ピキサントロン–AP部位DNA</text><text x="664" y="384.5" font-size="14" font-weight="400" fill="#5B6B73">手法・分解能</text><text x="664" y="408.5" font-size="19" font-weight="500" fill="#16324F">NMR＋拘束MD、結晶 2.5 Å</text><text x="664" y="443.2" font-size="14" font-weight="400" fill="#5B6B73">結合分子</text><text x="664" y="467.2" font-size="19" font-weight="500" fill="#16324F">ピキサントロン（PIX）</text><rect x="664" y="570" width="104" height="30" rx="15" fill="#16324F"/><text x="676" y="591" font-size="16" fill="#FFFFFF">機構の解明</text><rect x="778.0" y="570" width="152" height="30" rx="15" fill="#16324F"/><text x="790.0" y="591" font-size="16" fill="#FFFFFF">創薬・モダリティ</text><rect x="940.0" y="570" width="136" height="30" rx="15" fill="#16324F"/><text x="952.0" y="591" font-size="16" fill="#FFFFFF">新しい結合部位</text></svg>
