<svg xmlns="http://www.w3.org/2000/svg" width="1200" height="630" viewBox="0 0 1200 630" font-family="'Hiragino Sans','Hiragino Kaku Gothic ProN','Noto Sans JP','Yu Gothic',Meiryo,sans-serif"><rect width="1200" height="630" fill="#FFFFFF"/><rect width="1200" height="56" fill="#16324F"/><rect x="24" y="10" width="36" height="36" rx="8.64" fill="#33456E"/><path d="M31.02,24.52L30.59,24.55M30.59,24.55L30.18,24.61M30.18,24.61L29.77,24.73M29.77,24.73L29.37,24.89M29.37,24.89L28.99,25.10M28.99,25.10L28.63,25.35M28.63,25.35L28.28,25.64M28.28,25.64L27.97,25.96M27.97,25.96L27.68,26.33M27.68,26.33L27.42,26.72M27.42,26.72L27.20,27.15M27.20,27.15L27.01,27.61M27.01,27.61L26.85,28.08M26.85,28.08L26.74,28.58M26.74,28.58L26.66,29.10M26.66,29.10L26.63,29.62M26.63,29.62L26.64,30.16M26.64,30.16L26.69,30.70M26.69,30.70L26.78,31.24M26.78,31.24L26.92,31.78M26.92,31.78L27.09,32.31M27.09,32.31L27.31,32.83M27.31,32.83L27.57,33.33M27.57,33.33L27.87,33.81M27.87,33.81L28.20,34.27M28.20,34.27L28.57,34.71M28.57,34.71L28.98,35.12M28.98,35.12L29.41,35.49M29.41,35.49L29.88,35.83M29.88,35.83L30.36,36.13M30.36,36.13L30.88,36.39M30.88,36.39L31.41,36.61M31.41,36.61L31.96,36.78M31.96,36.78L32.52,36.91M32.52,36.91L33.09,36.99M33.09,36.99L33.67,37.03M33.67,37.03L34.25,37.02M36.90,22.88L36.48,22.89M36.48,22.89L36.06,22.94M36.06,22.94L35.64,23.05M35.64,23.05L35.24,23.20M35.24,23.20L34.86,23.39M34.86,23.39L34.49,23.63M34.49,23.63L34.14,23.90M34.14,23.90L33.82,24.22M33.82,24.22L33.52,24.57M33.52,24.57L33.25,24.96M33.25,24.96L33.02,25.38M33.02,25.38L32.82,25.83M32.82,25.83L32.65,26.30M32.65,26.30L32.53,26.79M32.53,26.79L32.44,27.30M32.44,27.30L32.40,27.83M32.40,27.83L32.39,28.36M32.39,28.36L32.43,28.90M32.43,28.90L32.51,29.44M32.51,29.44L32.63,29.98M32.63,29.98L32.80,30.51M32.80,30.51L33.01,31.03M33.01,31.03L33.25,31.54M33.25,31.54L33.54,32.03M33.54,32.03L33.86,32.50M33.86,32.50L34.22,32.94M34.22,32.94L34.62,33.36M34.62,33.36L35.04,33.74M35.04,33.74L35.50,34.09M35.50,34.09L35.98,34.40M35.98,34.40L36.49,34.67M36.49,34.67L37.01,34.90M37.01,34.90L37.56,35.09M37.56,35.09L38.12,35.23M38.12,35.23L38.68,35.33M38.68,35.33L39.26,35.38M39.26,35.38L39.84,35.38M39.84,35.38L40.42,35.33M42.36,21.24L41.93,21.28M41.93,21.28L41.52,21.37M41.52,21.37L41.12,21.50M41.12,21.50L40.72,21.68M40.72,21.68L40.35,21.91M40.35,21.91L40.00,22.17M40.00,22.17L39.67,22.48M39.67,22.48L39.36,22.82M39.36,22.82L39.09,23.20M39.09,23.20L38.84,23.61M38.84,23.61L38.63,24.05M38.63,24.05L38.46,24.52M38.46,24.52L38.32,25.00M38.32,25.00L38.22,25.51M38.22,25.51L38.17,26.03M38.17,26.03L38.15,26.56M38.15,26.56L38.18,27.10M38.18,27.10L38.24,27.64M38.24,27.64L38.35,28.18M38.35,28.18L38.51,28.71M38.51,28.71L38.70,29.24M38.70,29.24L38.94,29.75M38.94,29.75L39.21,30.25M39.21,30.25L39.53,30.72M39.53,30.72L39.88,31.17M39.88,31.17L40.26,31.60M40.26,31.60L40.68,31.99M40.68,31.99L41.13,32.35M41.13,32.35L41.60,32.67M41.60,32.67L42.10,32.95M42.10,32.95L42.62,33.20M42.62,33.20L43.16,33.40M43.16,33.40L43.72,33.55M43.72,33.55L44.28,33.66M44.28,33.66L44.86,33.72M44.86,33.72L45.43,33.74M45.43,33.74L46.01,33.71M48.24,19.59L47.81,19.62M47.81,19.62L47.40,19.69M47.40,19.69L46.99,19.81M46.99,19.81L46.59,19.98M46.59,19.98L46.22,20.19M46.22,20.19L45.86,20.45M45.86,20.45L45.52,20.74M45.52,20.74L45.21,21.08M45.21,21.08L44.92,21.45M44.92,21.45L44.67,21.85M44.67,21.85L44.45,22.28M44.45,22.28L44.26,22.74M44.26,22.74L44.12,23.22M44.12,23.22L44.01,23.72M44.01,23.72L43.94,24.23M43.94,24.23L43.91,24.76M43.91,24.76L43.92,25.30M43.92,25.30L43.98,25.84" stroke="#8FD3BE" stroke-width="3.48" stroke-linecap="round" fill="none"/><path d="M35.70,31.60L35.76,31.02M35.76,31.02L35.77,30.43M35.77,30.43L35.74,29.86M35.74,29.86L35.67,29.30M35.67,29.30L35.56,28.76M35.56,28.76L35.42,28.23M35.42,28.23L35.23,27.73M35.23,27.73L35.01,27.25M35.01,27.25L34.76,26.81M34.76,26.81L34.47,26.39M34.47,26.39L34.16,26.02M34.16,26.02L33.82,25.68M33.82,25.68L33.46,25.38M33.46,25.38L33.09,25.12M33.09,25.12L32.69,24.91M32.69,24.91L32.28,24.74M32.28,24.74L31.87,24.62M31.87,24.62L31.44,24.55M31.44,24.55L31.02,24.52M34.25,37.02L34.82,36.96M34.82,36.96L35.40,36.85M35.40,36.85L35.96,36.70M35.96,36.70L36.52,36.50M36.52,36.50L37.06,36.25M37.06,36.25L37.58,35.97M37.58,35.97L38.08,35.64M38.08,35.64L38.55,35.27M38.55,35.27L39.00,34.87M39.00,34.87L39.42,34.43M39.42,34.43L39.80,33.96M39.80,33.96L40.15,33.47M40.15,33.47L40.47,32.95M40.47,32.95L40.74,32.41M40.74,32.41L40.98,31.85M40.98,31.85L41.17,31.28M41.17,31.28L41.33,30.71M41.33,30.71L41.44,30.12M41.44,30.12L41.50,29.54M41.50,29.54L41.53,28.95M41.53,28.95L41.51,28.38M41.51,28.38L41.46,27.81M41.46,27.81L41.36,27.26M41.36,27.26L41.22,26.73M41.22,26.73L41.05,26.22M41.05,26.22L40.84,25.74M40.84,25.74L40.59,25.28M40.59,25.28L40.32,24.86M40.32,24.86L40.01,24.47M40.01,24.47L39.68,24.12M39.68,24.12L39.33,23.81M39.33,23.81L38.96,23.54M38.96,23.54L38.56,23.32M38.56,23.32L38.16,23.14M38.16,23.14L37.75,23.01M37.75,23.01L37.32,22.92M37.32,22.92L36.90,22.88M40.42,35.33L41.00,35.24M41.00,35.24L41.56,35.10M41.56,35.10L42.12,34.91M42.12,34.91L42.67,34.68M42.67,34.68L43.19,34.41M43.19,34.41L43.70,34.09M43.70,34.09L44.18,33.74M44.18,33.74L44.64,33.34M44.64,33.34L45.06,32.91M45.06,32.91L45.46,32.46M45.46,32.46L45.82,31.97M45.82,31.97L46.14,31.46M46.14,31.46L46.43,30.92M46.43,30.92L46.67,30.37M46.67,30.37L46.88,29.80M46.88,29.80L47.05,29.23M47.05,29.23L47.17,28.64M47.17,28.64L47.25,28.06M47.25,28.06L47.29,27.47M47.29,27.47L47.28,26.90M47.28,26.90L47.24,26.33M47.24,26.33L47.15,25.77M47.15,25.77L47.03,25.24M47.03,25.24L46.86,24.72M46.86,24.72L46.66,24.23M46.66,24.23L46.43,23.77M46.43,23.77L46.16,23.33M46.16,23.33L45.86,22.94M45.86,22.94L45.54,22.57M45.54,22.57L45.19,22.25M45.19,22.25L44.82,21.97M44.82,21.97L44.44,21.73M44.44,21.73L44.04,21.54M44.04,21.54L43.62,21.39M43.62,21.39L43.20,21.29M43.20,21.29L42.78,21.24M42.78,21.24L42.36,21.24M46.01,33.71L46.59,33.63M46.59,33.63L47.16,33.50M47.16,33.50L47.72,33.33M47.72,33.33L48.27,33.11M48.27,33.11L48.80,32.84M48.80,32.84L49.32,32.54M49.32,32.54L49.80,32.20M49.80,32.20L50.27,31.81M50.27,31.81L50.70,31.39M50.70,31.39L51.11,30.94M51.11,30.94L51.48,30.46M51.48,30.46L51.81,29.96M51.81,29.96L52.11,29.43M52.11,29.43L52.37,28.88M52.37,28.88L52.59,28.32M52.59,28.32L52.76,27.75M52.76,27.75L52.90,27.16M52.90,27.16L52.99,26.58M52.99,26.58L53.04,25.99M53.04,25.99L53.05,25.41M53.05,25.41L53.02,24.84M53.02,24.84L52.94,24.28M52.94,24.28L52.83,23.74M52.83,23.74L52.67,23.22M52.67,23.22L52.48,22.72M52.48,22.72L52.26,22.25M52.26,22.25L52.00,21.81M52.00,21.81L51.71,21.40M51.71,21.40L51.40,21.03M51.40,21.03L51.05,20.69M51.05,20.69L50.69,20.40M50.69,20.40L50.31,20.15M50.31,20.15L49.91,19.95M49.91,19.95L49.50,19.79M49.50,19.79L49.09,19.67M49.09,19.67L48.66,19.61M48.66,19.61L48.24,19.59" stroke="#FFFFFF" stroke-width="3.78" stroke-linecap="round" fill="none"/><circle cx="52.98" cy="17.38" r="3.31" fill="#35C99A" stroke="#33456E" stroke-width="0.72"/><text x="72" y="36" font-size="21" font-weight="700" fill="#FFFFFF">FoldFeed</text><text x="271" y="36" font-size="12" letter-spacing="2" fill="#AFC0DD">構造生物学デイリー · β</text><text x="1176" y="36" font-size="17" fill="#D5DDEB" text-anchor="end">2026-10-10</text><rect x="24" y="76" width="600" height="530" rx="18" fill="#EDF5F1"/><g fill="none" stroke-linecap="round" stroke-linejoin="round"><polyline points="568.4,348.9 577.6,353.4 585.3,347.1 586.2,337.6 594.6,338.9 588.7,339.9 585.2,330.3" stroke="#aac1df" stroke-width="3.50"/><polyline points="556.9,311.9 554.9,303.5 559.5,296.8 561.1,299.7 569.9,295.3 576.7,291.9 578.9,282.2" stroke="#a5bdde" stroke-width="3.59"/><polyline points="569.5,310.2 571.9,315.3 575.8,324.2 571.3,333.3 572.7,338.8 569.3,348.4 568.4,348.9" stroke="#a4bcdd" stroke-width="3.61"/><polyline points="558.4,313.0 550.4,318.8 546.5,320.8 546.6,329.7 547.5,331.9 546.2,340.6 553.8,341.9" stroke="#a2bbdc" stroke-width="3.65"/><polyline points="578.9,282.2 573.1,274.8 575.1,268.2 572.2,272.6 567.8,281.3 569.1,287.3 563.4,294.2" stroke="#a0b9db" stroke-width="3.70"/><polyline points="548.9,354.5 556.0,352.0 552.8,345.3 558.3,336.8 558.5,329.4 557.9,321.7 556.9,311.9" stroke="#9eb8db" stroke-width="3.72"/><polyline points="499.3,329.7 491.7,323.0 481.9,323.9 479.1,323.8 487.7,322.3 497.8,322.6 503.7,315.4" stroke="#9cb6da" stroke-width="3.77"/><polyline points="546.2,272.7 538.0,278.6 529.8,276.0 521.3,281.1 514.3,282.1 505.4,287.0 500.4,289.6" stroke="#9ab5d9" stroke-width="3.80"/><polyline points="419.2,315.3 416.1,307.5 415.1,301.0 405.5,298.1 399.1,305.8 392.7,308.7 384.4,306.7" stroke="#98b3d9" stroke-width="3.85"/><polyline points="545.7,309.6 539.5,315.6 529.9,315.8 524.5,320.8 515.1,324.6 508.9,326.5 499.3,329.7" stroke="#98b3d8" stroke-width="3.85"/><polyline points="544.0,271.1 544.3,280.7 534.4,282.8 529.3,291.1 520.2,293.4 512.3,298.1 506.0,301.6" stroke="#96b2d8" stroke-width="3.88"/><polyline points="578.5,292.7 570.7,286.2 570.4,278.8 561.1,277.3 557.2,270.4 556.3,273.3 546.2,272.7" stroke="#95b1d8" stroke-width="3.89"/><polyline points="503.7,315.4 512.1,312.4 519.7,307.7 526.5,304.2 535.3,300.4 538.6,296.5 541.8,287.1" stroke="#95b1d8" stroke-width="3.90"/><polyline points="384.4,306.7 387.3,297.3 390.2,295.5 381.3,298.9 375.4,293.9 378.4,284.9 373.7,285.6" stroke="#95b1d7" stroke-width="3.91"/><polyline points="395.5,324.6 397.8,322.0 390.2,327.6 381.6,324.4 375.6,332.2 372.9,327.3 382.1,327.3" stroke="#94b1d7" stroke-width="3.91"/><polyline points="585.2,330.3 586.0,329.5 581.3,320.6 578.9,322.6 571.2,327.6 563.8,326.5 559.9,335.6" stroke="#93b0d7" stroke-width="3.94"/><polyline points="456.5,299.3 446.9,300.6 444.4,310.0 436.3,316.1 432.7,318.4 424.9,323.6 419.2,315.3" stroke="#92afd6" stroke-width="3.97"/><polyline points="506.0,301.6 497.3,306.6 492.8,312.0 483.3,315.0 482.8,324.4 475.6,329.0 465.9,326.9" stroke="#91aed6" stroke-width="3.98"/><polyline points="465.9,326.9 458.0,330.2 454.4,337.8 444.5,336.8 436.0,339.4 427.2,334.4 418.0,338.4" stroke="#90add6" stroke-width="4.00"/><polyline points="418.0,338.4 411.6,333.7 403.5,335.9 406.7,331.3 411.1,324.1 403.0,320.9 395.5,324.6" stroke="#8fadd5" stroke-width="4.01"/><polyline points="563.4,294.2 567.1,302.1 563.3,302.7 560.7,312.3 564.9,315.6 564.4,315.6 569.5,310.2" stroke="#8fadd5" stroke-width="4.02"/><polyline points="500.4,289.6 492.4,295.0 488.2,298.0 478.6,300.1 470.2,303.3 461.3,298.3 456.5,299.3" stroke="#8fadd5" stroke-width="4.02"/><polyline points="559.9,335.6 567.3,342.5 576.6,344.0 575.4,339.7 585.3,340.6 589.4,332.9 596.0,325.4" stroke="#8eacd5" stroke-width="4.04"/><polyline points="373.7,285.6 367.7,293.8 357.9,291.1 353.2,298.8 344.8,297.6 337.3,303.4 328.9,300.9" stroke="#8dabd5" stroke-width="4.06"/><polyline points="596.0,325.4 593.4,316.0 588.0,309.7 593.4,302.1 589.9,299.4 580.0,299.9 578.5,292.7" stroke="#8dabd4" stroke-width="4.06"/><polyline points="498.4,345.3 505.4,350.9 510.0,353.4" stroke="#8dabd4" stroke-width="4.06"/><polyline points="328.9,300.9 320.3,303.4 314.2,309.8 305.8,305.5 297.7,306.5 290.4,308.0 283.1,309.2" stroke="#8aa9d4" stroke-width="4.11"/><polyline points="283.1,309.2 275.5,315.6 267.3,311.9 258.6,310.5 253.3,319.1 244.8,317.2 237.0,320.7" stroke="#8aa9d3" stroke-width="4.12"/><polyline points="541.8,354.5 546.9,350.8 542.8,355.7 545.2,365.2 546.0,369.9 551.0,363.7 548.9,354.5" stroke="#8aa9d3" stroke-width="4.12"/><polyline points="125.8,287.9 117.0,292.0 111.2,300.2 101.7,299.1 97.5,308.3 88.4,305.7 79.7,310.6" stroke="#89a8d3" stroke-width="4.14"/><polyline points="541.8,287.1 539.3,279.3 544.5,277.7 548.4,269.1 546.0,260.9 541.5,252.4 550.4,249.5" stroke="#89a8d3" stroke-width="4.14"/><polyline points="79.7,310.6 71.5,311.5 65.3,304.1 57.9,305.6" stroke="#89a8d3" stroke-width="4.14"/><polyline points="524.4,306.6 524.0,297.6 527.3,288.2 535.9,289.5 543.2,296.5 539.8,304.6 545.7,309.6" stroke="#88a8d3" stroke-width="4.15"/><polyline points="525.9,326.6 527.8,321.1 528.6,328.2 532.4,336.6 539.6,331.1 542.6,321.6 538.4,317.0" stroke="#87a7d2" stroke-width="4.17"/><polyline points="382.1,327.3 384.2,336.3 376.4,340.3 377.7,334.8 387.6,336.7 385.5,346.4 382.0,343.5" stroke="#87a7d2" stroke-width="4.18"/><polyline points="553.8,341.9 553.2,347.9 560.8,354.5 560.8,360.6 556.6,353.5 555.7,360.0 548.7,367.3" stroke="#86a6d2" stroke-width="4.18"/><polyline points="237.0,320.7 231.9,326.6 222.3,324.0 217.0,331.9 207.8,328.5 201.0,334.3 192.2,332.4" stroke="#86a6d2" stroke-width="4.19"/><polyline points="448.1,348.6 457.3,347.3 465.6,352.2 472.2,345.8 482.2,346.8 488.5,346.9 498.4,345.3" stroke="#86a6d2" stroke-width="4.20"/><polyline points="554.0,265.3 555.5,268.0 563.7,263.2 562.8,265.7 557.4,274.1 553.1,270.7 544.0,271.1" stroke="#86a6d2" stroke-width="4.20"/><polyline points="150.6,296.2 146.3,288.8 139.6,287.0 137.3,296.9 136.7,299.7 133.0,291.0 125.8,287.9" stroke="#85a6d2" stroke-width="4.20"/><polyline points="500.9,323.4 504.2,332.6 510.1,328.4 513.5,321.7 515.6,328.7 520.3,334.2 525.9,326.6" stroke="#85a5d2" stroke-width="4.21"/><polyline points="382.0,288.4 390.8,293.4 394.5,290.7 403.4,286.4 408.8,291.8 413.4,284.4 418.5,281.1" stroke="#85a5d1" stroke-width="4.22"/><polyline points="192.2,332.4 187.4,341.1 180.6,336.4 177.3,330.6 176.8,338.7 171.4,344.1 165.4,336.2" stroke="#84a4d1" stroke-width="4.23"/><polyline points="418.5,281.1 422.4,290.5 424.5,292.3 430.2,283.9 437.6,288.5 444.5,288.0 449.9,281.1" stroke="#82a3d1" stroke-width="4.26"/><polyline points="133.4,314.9 137.8,318.2 143.4,324.9 146.5,318.1 148.6,311.5 154.4,318.6 158.7,320.6" stroke="#82a3d1" stroke-width="4.26"/><polyline points="477.1,329.1 482.9,322.3 486.5,318.6 488.5,328.0 493.6,330.0 498.7,321.3 500.9,323.4" stroke="#82a3d0" stroke-width="4.27"/><polyline points="158.7,320.6 160.7,310.8 164.6,309.7 170.6,317.8 173.3,314.1 175.8,305.2 181.2,309.9" stroke="#82a3d0" stroke-width="4.27"/><polyline points="359.4,310.3 365.2,317.7 367.6,311.0 371.9,304.7 376.0,312.5 380.5,315.5 383.3,306.0" stroke="#81a2d0" stroke-width="4.29"/><polyline points="338.4,324.7 340.2,315.8 343.3,311.6 349.2,319.8 353.2,318.6 354.7,308.6 359.4,310.3" stroke="#81a2d0" stroke-width="4.29"/><polyline points="181.2,309.9 185.9,315.4 187.9,307.0 191.7,302.6 197.5,310.7 200.9,311.0 203.0,301.1" stroke="#81a2d0" stroke-width="4.29"/><polyline points="110.7,325.9 116.6,329.4 119.0,319.8 121.5,318.1 127.3,326.4 131.8,324.4 133.4,314.9" stroke="#81a2d0" stroke-width="4.30"/><polyline points="313.0,318.9 316.4,320.2 322.4,327.8 325.6,322.4 328.0,314.2 332.5,320.0 338.4,324.7" stroke="#80a2d0" stroke-width="4.30"/><polyline points="383.3,306.0 388.1,305.7 392.0,314.9 395.9,311.8 399.4,303.3 404.2,309.0 407.6,315.5" stroke="#80a2d0" stroke-width="4.30"/><polyline points="449.9,281.1 458.6,286.2 464.4,277.8 473.9,281.1 482.7,276.1 488.3,272.2 498.1,271.3" stroke="#80a2d0" stroke-width="4.30"/><polyline points="455.8,314.8 459.3,315.1 461.4,325.0 466.4,323.4 471.6,315.8 473.7,321.6 477.1,329.1" stroke="#80a2d0" stroke-width="4.30"/><polyline points="538.4,317.0 542.1,309.7 533.3,304.8 533.0,295.3 523.8,293.7 520.0,303.1 524.4,306.6" stroke="#7fa1cf" stroke-width="4.32"/><polyline points="171.6,280.9 165.5,283.6 164.4,292.9 162.1,289.1 155.4,282.8 150.8,290.1 150.6,296.2" stroke="#7fa1cf" stroke-width="4.32"/><polyline points="203.0,301.1 208.1,302.1 213.3,310.1 215.7,305.1 218.6,296.9 224.4,302.7 228.6,307.4" stroke="#7fa1cf" stroke-width="4.32"/><polyline points="407.6,315.5 411.8,307.6 417.2,305.4 419.3,315.3 423.2,315.7 428.5,307.2 432.3,310.9" stroke="#7fa1cf" stroke-width="4.32"/><polyline points="432.3,310.9 434.5,320.0 439.3,315.3 444.4,309.9 446.6,318.6 450.0,322.9 455.8,314.8" stroke="#7fa1cf" stroke-width="4.32"/><polyline points="289.4,327.4 294.8,332.9 298.1,324.5 300.6,320.4 305.9,328.6 310.6,328.8 313.0,318.9" stroke="#7fa1cf" stroke-width="4.33"/><polyline points="165.4,336.2 163.8,335.1 161.8,345.0 155.2,344.2 150.4,336.2 150.0,341.0 145.9,349.1" stroke="#7fa1cf" stroke-width="4.33"/><polyline points="418.4,352.2 422.1,348.0 424.3,338.8 429.9,343.1 437.3,345.4 444.3,339.9 448.1,348.6" stroke="#7ea0cf" stroke-width="4.34"/><polyline points="89.6,332.2 91.7,322.4 94.6,324.6 100.4,332.2 104.6,326.1 106.4,319.1 110.7,325.9" stroke="#7ea0cf" stroke-width="4.35"/><polyline points="498.1,271.3 504.6,267.4 508.8,260.1" stroke="#7da0cf" stroke-width="4.35"/><polyline points="267.6,335.1 270.4,325.4 273.3,325.5 278.3,334.2 283.1,330.5 285.4,322.0 289.4,327.4" stroke="#7da0cf" stroke-width="4.36"/><polyline points="228.6,307.4 230.5,298.5 234.5,294.2 240.2,302.5 243.4,302.9 245.8,293.0 251.9,294.2" stroke="#7d9fcf" stroke-width="4.36"/><polyline points="382.0,343.5 391.0,339.3 395.0,348.5 403.8,352.0 408.9,343.5 413.6,343.5 418.4,352.2" stroke="#7c9fce" stroke-width="4.38"/><polyline points="55.8,309.5 58.9,300.1 66.0,294.9 73.1,296.3 77.0,304.1 78.3,298.0 83.6,291.1" stroke="#7b9ece" stroke-width="4.39"/><polyline points="200.6,283.8 191.5,288.0 187.7,281.0 180.7,277.9 178.0,287.5 177.1,289.4 171.6,280.9" stroke="#7b9ece" stroke-width="4.40"/><polyline points="243.2,325.1 245.6,330.3 251.3,336.9 255.6,329.3 258.0,324.4 261.7,333.0 267.6,335.1" stroke="#7b9ece" stroke-width="4.41"/><polyline points="251.9,294.2 255.6,302.7 258.1,297.8 262.1,290.1 268.0,296.2 270.5,301.5 273.6,293.0" stroke="#7a9ece" stroke-width="4.41"/><polyline points="59.8,327.3 64.9,328.5 71.3,335.1 76.4,327.4 79.1,323.8 83.9,332.2 89.6,332.2" stroke="#7a9dce" stroke-width="4.41"/><polyline points="574.1,359.2 570.2,367.9 561.4,370.2 558.7,379.0 554.3,382.5 544.6,384.9 535.7,383.9" stroke="#7a9dcd" stroke-width="4.42"/><polyline points="381.3,279.5 383.9,272.7 376.2,275.5 377.8,285.4 387.8,284.7 386.1,279.7 382.0,288.4" stroke="#799ccd" stroke-width="4.44"/><polyline points="145.9,349.1 139.2,342.9 137.1,338.6 135.6,347.8 127.2,348.7 122.6,340.7 117.7,345.0" stroke="#799ccd" stroke-width="4.45"/><polyline points="273.6,293.0 278.8,290.3 283.3,299.3 285.5,299.0 289.7,289.9 295.1,293.0 298.3,301.2" stroke="#789ccd" stroke-width="4.46"/><polyline points="83.6,291.1 88.9,298.6 91.5,302.4 93.8,293.2 99.9,291.5 104.0,300.8 105.9,298.8" stroke="#779bcc" stroke-width="4.48"/><polyline points="218.6,334.1 224.3,336.8 228.4,327.5 230.2,327.4 234.8,336.5 240.2,333.7 243.2,325.1" stroke="#779bcc" stroke-width="4.48"/><polyline points="535.7,383.9 529.8,378.5 521.5,378.1 513.8,372.2 505.0,369.3 500.8,360.1 490.9,360.9" stroke="#769acc" stroke-width="4.50"/><polyline points="542.8,326.0 534.6,326.8 533.5,333.5 524.8,338.3 520.0,333.8 523.0,341.5 524.3,350.0" stroke="#759acc" stroke-width="4.51"/><polyline points="566.8,284.3 562.1,284.0 567.5,278.9 575.5,272.7 574.1,268.1 583.9,265.0 588.2,273.0" stroke="#759acc" stroke-width="4.51"/><polyline points="298.3,301.2 300.7,295.5 306.1,289.2 310.8,296.9 313.1,301.4 316.5,292.5 322.6,291.2" stroke="#7499cb" stroke-width="4.53"/><polyline points="486.5,294.0 488.5,286.5 493.6,292.9 498.8,296.4 501.0,286.9 504.2,284.7 510.0,293.0" stroke="#7398cb" stroke-width="4.55"/><polyline points="197.4,334.6 200.6,326.0 202.8,331.0 208.0,338.1 213.1,331.0 215.4,325.7 218.6,334.1" stroke="#7398cb" stroke-width="4.55"/><polyline points="466.0,275.1 458.4,268.4 452.7,270.6 443.4,270.0 435.3,271.2 426.6,274.6 417.4,271.1" stroke="#7398cb" stroke-width="4.56"/><polyline points="105.9,298.8 110.0,289.8 115.9,294.2 118.5,301.3 120.9,294.1 126.6,288.7 131.1,297.2" stroke="#7398cb" stroke-width="4.56"/><polyline points="510.0,293.0 513.7,290.3 515.6,280.7 520.2,284.2 525.8,291.3 528.3,286.6 528.4,276.5" stroke="#7398cb" stroke-width="4.56"/><polyline points="461.4,292.2 466.5,300.5 471.6,300.5 473.7,290.7 477.1,292.2 483.0,299.8 486.5,294.0" stroke="#7298cb" stroke-width="4.57"/><polyline points="550.4,249.5 551.7,253.4 557.8,250.5 554.1,247.6 560.5,248.9 559.9,249.3 556.8,258.2" stroke="#7298cb" stroke-width="4.57"/><polyline points="524.3,350.0 527.4,351.3 535.1,344.8 542.1,341.0 539.2,342.0 545.5,346.5 539.8,349.3" stroke="#7297ca" stroke-width="4.57"/><polyline points="567.6,395.7 571.4,393.9 572.5,383.9 571.0,377.3 571.1,367.2 563.9,360.4 565.7,351.6" stroke="#7297ca" stroke-width="4.58"/><polyline points="387.0,367.8 390.1,360.2 381.4,355.1 374.9,362.9 378.1,364.5 374.3,355.6 367.9,352.8" stroke="#7297ca" stroke-width="4.58"/><polyline points="548.7,367.3 544.6,370.3 534.6,369.4 527.9,368.1 518.4,364.8 510.3,364.5 503.7,356.8" stroke="#7297ca" stroke-width="4.58"/><polyline points="243.3,286.2 237.4,281.5 230.9,288.4 221.4,285.2 217.0,286.1 207.9,290.3 200.6,283.8" stroke="#7197ca" stroke-width="4.59"/><polyline points="592.3,347.7 587.8,350.0 593.7,346.5 587.9,343.9 578.4,345.4 577.8,355.4 574.1,359.2" stroke="#7196ca" stroke-width="4.60"/><polyline points="490.9,360.9 487.9,351.3 480.6,351.7 472.2,346.2 464.0,348.4 459.7,357.0 449.9,354.5" stroke="#7196ca" stroke-width="4.60"/><polyline points="367.9,352.8 358.2,352.2 353.1,353.5 344.6,349.6 336.9,350.2 329.1,345.4 320.4,348.9" stroke="#7096ca" stroke-width="4.60"/><polyline points="322.6,291.2 325.8,300.9 328.1,300.0 332.6,291.0 338.6,294.6 340.2,303.0 343.4,297.4" stroke="#7096ca" stroke-width="4.60"/><polyline points="365.7,328.8 367.3,325.1 371.0,334.3 376.2,335.6 380.8,326.6 384.5,330.1 389.5,337.6" stroke="#7096ca" stroke-width="4.61"/><polyline points="389.5,337.6 392.2,331.0 396.3,324.8 400.8,332.7 405.0,335.6 407.8,325.9 412.3,325.7" stroke="#7096ca" stroke-width="4.61"/><polyline points="417.4,271.1 411.0,278.9 402.9,272.8 405.8,267.6 410.2,276.0 402.3,282.2 394.8,275.2" stroke="#7096ca" stroke-width="4.61"/><polyline points="528.4,276.5 532.3,276.2 539.4,283.2 542.6,289.3 538.1,298.4 542.6,306.9 533.7,310.6" stroke="#7096ca" stroke-width="4.61"/><polyline points="172.9,325.4 175.6,333.5 181.1,337.2 185.6,328.2 187.7,327.6 191.6,336.9 197.4,334.6" stroke="#7096ca" stroke-width="4.61"/><polyline points="439.3,306.0 444.2,302.5 446.6,293.9 450.1,299.2 455.8,304.9 459.2,296.5 461.4,292.2" stroke="#7096ca" stroke-width="4.62"/><polyline points="131.1,297.2 133.0,299.8 137.1,290.6 142.8,291.1 145.7,300.6 148.2,297.5 153.7,290.0" stroke="#6f95c9" stroke-width="4.63"/><polyline points="117.7,345.0 108.1,343.8 101.6,347.2 92.6,347.1 86.0,341.4 76.8,342.3 71.8,337.3" stroke="#6f95c9" stroke-width="4.63"/><polyline points="412.3,325.7 417.0,334.4 419.9,330.5 423.5,322.2 428.8,328.0 432.4,333.6 435.0,325.6" stroke="#6f95c9" stroke-width="4.63"/><polyline points="512.8,350.4 519.6,350.8 525.2,358.6 533.4,356.2 541.0,360.9 545.8,358.8 541.8,354.5" stroke="#6e95c9" stroke-width="4.65"/><polyline points="320.4,348.9 313.4,342.5 306.1,340.0 298.0,346.0 290.6,339.2 281.4,343.2 275.1,341.3" stroke="#6e94c9" stroke-width="4.65"/><polyline points="416.5,302.3 419.4,296.1 423.0,303.9 428.2,307.1 432.0,297.8 434.3,297.1 439.3,306.0" stroke="#6d94c9" stroke-width="4.67"/><polyline points="343.4,297.4 349.2,292.1 353.3,300.7 354.8,304.6 359.5,296.2 365.2,295.9 367.8,305.5" stroke="#6c93c8" stroke-width="4.68"/><polyline points="153.7,290.0 158.2,296.5 160.3,303.0 164.2,295.5 169.9,292.8 172.8,302.4 175.4,303.1" stroke="#6c93c8" stroke-width="4.68"/><polyline points="340.1,323.8 343.6,333.3 350.3,330.6 353.6,323.1 354.3,328.9 359.6,335.8 365.7,328.8" stroke="#6c93c8" stroke-width="4.69"/><polyline points="435.0,325.6 439.7,321.4 444.8,330.1 446.9,330.0 450.5,320.5 456.2,323.1 459.7,331.1" stroke="#6c93c8" stroke-width="4.69"/><polyline points="148.4,334.3 154.2,334.2 158.2,325.3 160.3,328.5 164.5,337.0 170.2,331.5 172.9,325.4" stroke="#6c93c8" stroke-width="4.69"/><polyline points="394.8,275.2 397.0,267.2 389.4,261.4 380.6,266.4 375.1,265.7 372.1,275.3 381.3,279.5" stroke="#6c93c8" stroke-width="4.70"/><polyline points="392.0,296.2 395.7,305.4 400.0,306.0 404.4,297.0 407.4,299.8 411.6,308.1 416.5,302.3" stroke="#6b92c8" stroke-width="4.71"/><polyline points="574.7,234.6 568.6,228.5 576.6,222.3 583.8,227.2 584.5,236.7 593.1,239.9 591.2,249.9" stroke="#6b92c8" stroke-width="4.71"/><polyline points="71.8,337.3 63.0,338.9 56.5,339.4" stroke="#6b92c8" stroke-width="4.72"/><polyline points="367.8,305.5 372.0,303.0 376.2,294.7 380.4,300.5 383.7,307.1 388.4,299.6 392.0,296.2" stroke="#6a92c8" stroke-width="4.72"/><polyline points="591.2,249.9 585.2,256.4 584.0,264.7 578.7,270.2 578.7,278.3 571.1,275.2 566.8,284.3" stroke="#6a91c7" stroke-width="4.73"/><polyline points="175.4,303.1 180.8,294.6 185.3,298.1 187.5,306.9 191.4,301.8 197.1,296.1 200.3,304.3" stroke="#6a91c7" stroke-width="4.74"/><polyline points="415.4,352.9 414.4,362.9 404.8,366.1 398.8,363.5 392.8,355.4 384.5,361.2 387.0,367.8" stroke="#6991c7" stroke-width="4.75"/><polyline points="127.5,330.3 130.5,322.9 132.8,329.8 137.8,335.2 143.1,327.1 145.3,324.8 148.4,334.3" stroke="#6990c7" stroke-width="4.75"/><polyline points="560.9,278.4 567.4,271.8 567.2,263.7 572.2,255.0 574.7,251.8 575.2,241.7 574.7,234.6" stroke="#6890c7" stroke-width="4.76"/><polyline points="554.1,368.6 561.0,374.3 570.3,377.7 569.0,385.7 577.8,389.9 576.4,394.1 567.6,395.7" stroke="#6890c7" stroke-width="4.76"/><polyline points="52.0,303.4 60.3,301.5 61.2,311.1 63.5,314.7 70.2,307.3 74.8,309.0 76.4,318.7" stroke="#6890c7" stroke-width="4.76"/><polyline points="459.7,331.1 461.8,325.4 466.9,318.8 472.0,326.4 474.1,330.3 477.5,321.4 483.4,320.7" stroke="#6890c7" stroke-width="4.76"/><polyline points="315.7,329.2 321.7,322.7 325.3,319.2 327.5,328.5 331.4,331.1 337.6,323.0 340.1,323.8" stroke="#6890c7" stroke-width="4.77"/><polyline points="200.3,304.3 202.6,309.0 207.8,300.9 212.8,300.3 215.1,310.2 218.4,309.7 224.1,301.6" stroke="#6890c7" stroke-width="4.77"/><polyline points="275.1,341.3 266.1,336.8 260.0,342.9 252.4,336.2 243.5,341.0 237.4,337.8 231.0,331.4" stroke="#678fc6" stroke-width="4.78"/><polyline points="290.9,296.4 281.7,294.8 275.2,289.5 266.2,293.0 260.0,285.1 252.3,289.1 243.3,286.2" stroke="#678fc6" stroke-width="4.79"/><polyline points="224.1,301.6 228.1,306.1 229.9,314.5 234.5,309.2 240.0,304.1 242.8,312.8 245.3,316.9" stroke="#668fc6" stroke-width="4.79"/><polyline points="76.4,318.7 82.0,316.3 89.1,311.2 90.8,319.0 92.8,325.7 97.7,318.7 104.2,316.9" stroke="#668fc6" stroke-width="4.80"/><polyline points="294.4,315.3 297.7,316.1 300.1,325.8 305.3,323.5 310.2,316.0 312.6,321.9 315.7,329.2" stroke="#668fc6" stroke-width="4.80"/><polyline points="504.6,283.5 496.0,279.7 492.4,283.4 483.0,280.3 482.7,279.1 475.6,272.0 466.0,275.1" stroke="#668fc6" stroke-width="4.80"/><polyline points="558.6,246.7 549.7,251.3 545.0,252.9 546.9,252.9 546.3,259.9 546.0,260.0 554.0,265.3" stroke="#668fc6" stroke-width="4.80"/><polyline points="104.2,316.9 104.7,326.7 107.6,329.5 115.3,322.9 117.9,324.8 121.3,334.0 127.5,330.3" stroke="#668fc6" stroke-width="4.80"/><polyline points="565.7,351.6 562.7,343.2 559.9,335.0 562.5,339.5 562.1,348.2 567.5,356.7 574.8,360.6" stroke="#668ec6" stroke-width="4.80"/><polyline points="449.9,354.5 446.2,350.0 437.1,346.5 431.1,350.2 422.5,348.6 416.9,353.8 415.4,352.9" stroke="#668ec6" stroke-width="4.81"/><polyline points="530.0,276.0 524.0,267.9 514.5,265.9 507.9,258.9 498.9,257.2 490.8,259.1 481.1,256.0" stroke="#658ec6" stroke-width="4.82"/><polyline points="245.3,316.9 250.9,308.8 255.3,308.9 257.6,318.8 261.3,317.3 267.2,309.6 270.0,314.6" stroke="#658ec6" stroke-width="4.82"/><polyline points="270.0,314.6 272.9,322.5 278.0,316.3 282.7,311.7 285.0,320.6 289.0,323.8 294.4,315.3" stroke="#658ec6" stroke-width="4.83"/><polyline points="483.4,320.7 486.8,330.1 488.9,328.0 494.0,319.7 499.1,325.2 501.3,332.2 504.6,325.0" stroke="#648dc5" stroke-width="4.83"/><polyline points="588.2,273.0 595.1,274.8 592.6,275.9 586.6,283.4 592.2,290.7 588.5,300.0 578.7,297.6" stroke="#648dc5" stroke-width="4.84"/><polyline points="528.6,334.2 527.8,337.9 532.3,330.7 539.2,329.0 542.6,332.4 537.7,328.2 542.8,326.0" stroke="#638dc5" stroke-width="4.85"/><polyline points="481.1,256.0 478.1,265.1 486.6,270.6 496.7,269.9 503.3,270.1 511.5,276.1 519.2,274.4" stroke="#638dc5" stroke-width="4.85"/><polyline points="336.4,288.1 328.2,293.9 319.2,289.7 313.2,287.9 306.5,295.3 298.2,289.5 290.9,296.4" stroke="#628cc5" stroke-width="4.87"/><polyline points="503.7,356.8 494.9,356.0 491.7,346.4 482.4,346.3 482.8,338.1 476.7,339.8 467.3,339.3" stroke="#628cc5" stroke-width="4.87"/><polyline points="462.2,293.7 455.1,286.4 449.1,286.3 439.3,288.8 434.7,282.8 430.6,273.5 421.9,268.7" stroke="#628cc5" stroke-width="4.87"/><polyline points="533.7,310.6 533.2,311.9 523.7,309.8 520.1,305.1 524.2,295.9 523.4,297.0 527.0,304.1" stroke="#628cc5" stroke-width="4.88"/><polyline points="111.7,298.2 105.8,294.1 96.5,294.2 89.5,295.4 82.0,289.0 80.8,291.8 70.8,293.3" stroke="#628bc4" stroke-width="4.88"/><polyline points="70.8,293.3 68.6,288.5" stroke="#628bc4" stroke-width="4.89"/><polyline points="504.6,325.0 510.5,321.3 514.0,330.6 516.0,332.6 520.6,323.6 526.1,324.3 528.6,334.2" stroke="#618bc4" stroke-width="4.89"/><polyline points="527.0,304.1 536.0,306.5 543.4,303.0 540.5,294.2 546.0,285.9 539.9,277.9 530.0,276.0" stroke="#608ac4" stroke-width="4.91"/><polyline points="231.0,331.4 221.6,333.8 217.1,325.3 207.8,323.7 202.3,325.4 193.8,321.5 188.9,320.8" stroke="#608ac4" stroke-width="4.92"/><polyline points="571.0,285.8 564.4,287.6 565.9,288.9 563.5,297.6 559.9,297.0 561.8,287.1 560.9,278.4" stroke="#608ac4" stroke-width="4.92"/><polyline points="141.0,313.2 138.5,308.7 135.4,300.3 128.4,306.0 123.0,306.4 121.5,296.3 111.7,298.2" stroke="#5e89c3" stroke-width="4.95"/><polyline points="421.9,268.7 418.6,271.5 416.7,281.2 414.8,279.4 405.3,279.3 398.9,273.7 392.6,278.5" stroke="#5e89c3" stroke-width="4.96"/><polyline points="165.6,315.3 163.3,309.2 156.8,316.3 151.7,317.0 152.0,306.8 147.6,305.9 141.0,313.2" stroke="#5c88c2" stroke-width="4.99"/><polyline points="188.9,320.8 181.5,327.8 179.1,324.5 177.8,314.9 173.1,318.2 166.4,323.4 165.6,315.3" stroke="#5c88c2" stroke-width="4.99"/><polyline points="581.0,349.5 580.8,352.4 575.7,344.2 571.4,338.4 564.4,332.5 561.4,325.6 569.3,322.5" stroke="#5c87c2" stroke-width="4.99"/><polyline points="491.9,361.1 481.8,362.2 479.8,353.5 488.6,350.5 498.7,351.3 505.9,356.1 512.8,350.4" stroke="#5c87c2" stroke-width="4.99"/><polyline points="395.8,342.3 396.5,352.0 390.1,352.2 381.9,350.2 375.8,343.9 373.2,339.3 382.4,335.7" stroke="#5b86c2" stroke-width="5.02"/><polyline points="539.8,349.3 530.0,349.9 524.7,353.7 515.6,351.9 509.2,358.3 499.6,357.1 491.9,361.1" stroke="#5b86c2" stroke-width="5.02"/><polyline points="417.2,333.5 409.9,330.6 402.7,334.1 405.9,343.6 410.4,342.4 403.3,337.8 395.8,342.3" stroke="#5a86c2" stroke-width="5.02"/><polyline points="382.4,335.7 384.2,334.6 376.6,327.9 378.5,323.8 388.4,321.8 385.9,315.5 382.3,308.9" stroke="#5a86c2" stroke-width="5.02"/><polyline points="382.3,308.9 391.2,308.6 395.3,303.0 404.3,304.1 409.0,307.0 413.5,314.8 418.0,308.7" stroke="#5a86c2" stroke-width="5.03"/><polyline points="418.0,308.7 421.7,303.3 424.6,311.0 429.8,314.9 435.7,306.6 443.3,312.0 447.4,313.6" stroke="#5985c1" stroke-width="5.05"/><polyline points="378.5,292.6 374.4,299.9 368.1,294.8 358.1,296.4 352.7,288.3 344.4,293.9 336.4,288.1" stroke="#5985c1" stroke-width="5.05"/><polyline points="505.1,287.7 500.4,293.5 491.0,289.5 488.1,293.2 479.4,288.1 471.0,291.6 462.2,293.7" stroke="#5884c1" stroke-width="5.07"/><polyline points="569.3,322.5 572.4,329.9 576.4,339.2 586.3,336.9 585.7,336.2 592.4,338.9 592.3,347.7" stroke="#5884c1" stroke-width="5.08"/><polyline points="392.6,278.5 384.4,274.4 387.2,277.2 389.9,286.4 381.2,288.0 374.8,285.3 378.5,292.6" stroke="#5884c1" stroke-width="5.08"/><polyline points="519.2,274.4 524.0,283.3 533.8,285.7 539.4,281.7 543.1,290.4 538.3,299.3 542.4,308.6" stroke="#5884c1" stroke-width="5.08"/><polyline points="467.3,339.3 459.3,341.5 452.5,334.4 443.4,338.5 435.4,332.4 426.0,333.7 417.2,333.5" stroke="#5784c1" stroke-width="5.08"/><polyline points="447.4,313.6 456.4,310.1 463.6,313.8 471.6,315.9 481.3,316.2 486.8,324.4 496.4,327.8" stroke="#5482bf" stroke-width="5.14"/><polyline points="556.8,258.2 557.3,261.9 553.6,270.1 561.0,270.9 570.2,266.7 570.0,258.6 580.1,259.0" stroke="#5481bf" stroke-width="5.15"/><polyline points="533.0,373.8 538.9,370.3 547.9,369.7 546.3,361.7 546.9,351.8 548.0,342.9 555.8,336.8" stroke="#5481bf" stroke-width="5.15"/><polyline points="557.3,340.4 553.4,349.4 558.3,354.0 557.4,363.2 558.2,361.2 558.0,367.9 554.1,368.6" stroke="#5381bf" stroke-width="5.16"/><polyline points="549.2,297.7 545.2,288.4 535.2,288.9 528.5,283.5 519.1,285.6 511.4,279.4 504.6,283.5" stroke="#517fbe" stroke-width="5.20"/><polyline points="555.8,336.8 555.2,326.6 561.4,323.0 561.8,312.8 555.8,311.8 555.8,301.7 549.2,297.7" stroke="#4f7dbd" stroke-width="5.25"/><polyline points="578.7,297.6 577.0,295.3 573.7,301.2 570.4,299.9 561.4,295.2 558.8,294.5 553.8,285.8" stroke="#4e7dbd" stroke-width="5.25"/><polyline points="496.4,327.8 503.9,325.2 506.7,329.8" stroke="#4d7dbd" stroke-width="5.27"/><polyline points="574.7,360.8 580.6,364.6 579.2,366.8 588.8,364.9 586.1,356.2 584.8,358.4 581.0,349.5" stroke="#4a7abc" stroke-width="5.33"/><polyline points="574.8,360.6 574.4,363.5 570.6,355.5 570.2,358.4 570.8,352.1 565.8,358.2 574.7,360.8" stroke="#4a7abc" stroke-width="5.34"/><polyline points="542.4,308.6 546.8,313.1 541.9,314.4 539.2,323.2 549.0,325.1 551.2,332.4 557.3,340.4" stroke="#4878bb" stroke-width="5.38"/><polyline points="553.8,285.8 544.3,284.8 535.3,281.1 529.3,289.1 521.1,284.2 513.7,289.6 505.1,287.7" stroke="#4778ba" stroke-width="5.40"/><polyline points="580.1,259.0 579.9,268.5 578.9,273.0 570.5,278.0 573.6,285.9 570.5,281.7 571.0,285.8" stroke="#4778ba" stroke-width="5.40"/></g><text x="44" y="588" font-size="15" fill="#5B6B73">PDB 22EC · クライオ電顕 3.23 Å</text><text x="664" y="100.0" font-size="16" font-weight="400" fill="#5B6B73">PLOS Pathogens  ·  2026-10-01</text><text x="664" y="152.4" font-size="32" font-weight="700" fill="#16324F">Receptor-induced activation</text><text x="664" y="193.4" font-size="32" font-weight="700" fill="#16324F">of MERS-CoV spike revealed</text><text x="664" y="234.3" font-size="32" font-weight="700" fill="#16324F">by time-course cryo-EM</text><line x1="664" y1="250.9" x2="720" y2="250.9" stroke="#1AA179" stroke-width="3"/><text x="664" y="284.9" font-size="14" font-weight="400" fill="#5B6B73">標的</text><text x="664" y="308.9" font-size="19" font-weight="500" fill="#16324F">MERS-CoVスパイク–DPP4</text><text x="664" y="343.6" font-size="14" font-weight="400" fill="#5B6B73">手法・分解能</text><text x="664" y="367.6" font-size="19" font-weight="500" fill="#16324F">クライオ電顕・2.88–3.44 Å（7 構造）</text><text x="664" y="402.3" font-size="14" font-weight="400" fill="#5B6B73">結合分子</text><text x="664" y="426.3" font-size="19" font-weight="500" fill="#16324F">DPP4（受容体）</text><rect x="664" y="570" width="104" height="30" rx="15" fill="#16324F"/><text x="676" y="591" font-size="16" fill="#FFFFFF">手法の工夫</text><rect x="778.0" y="570" width="104" height="30" rx="15" fill="#16324F"/><text x="790.0" y="591" font-size="16" fill="#FFFFFF">機構の解明</text><rect x="892.0" y="570" width="152" height="30" rx="15" fill="#16324F"/><text x="904.0" y="591" font-size="16" fill="#FFFFFF">創薬・モダリティ</text></svg>
